<svg width="36" height="36" viewBox="0 0 36 36" fill="none" xmlns="http://www.w3.org/2000/svg">
<path d="M32.4563 8.63437L18.8719 0.815619C18.6469 0.674994 18.3375 0.618744 18 0.618744C17.6625 0.618744 17.3531 0.703119 17.1281 0.815619L3.62812 8.66249C3.15 8.94374 2.8125 9.64687 2.8125 10.1812V25.8469C2.8125 26.1562 2.86875 26.5219 3.09375 26.8312L33.1313 9.39374C32.9625 9.05624 32.7094 8.80312 32.4563 8.63437Z" fill="#659AD3"/>
<path d="M3.00928 26.8031C3.1499 27.0281 3.34678 27.225 3.54365 27.3375L17.0999 35.1844C17.3249 35.325 17.6343 35.3813 17.9718 35.3813C18.3093 35.3813 18.6187 35.2969 18.8437 35.1844L32.3437 27.3375C32.8218 27.0563 33.1593 26.3531 33.1593 25.8188V10.1531C33.1593 9.90001 33.1312 9.61876 32.9905 9.36563L3.00928 26.8031Z" fill="#03599C"/>
<path d="M23.9906 21.4031C22.8094 23.4844 20.5594 24.8906 18 24.8906C14.2031 24.8906 11.1094 21.7969 11.1094 18C11.1094 14.2031 14.2031 11.1094 18 11.1094C20.5594 11.1094 22.8094 12.5156 23.9906 14.625L27.6469 12.5156C25.7344 9.16875 22.1344 6.89062 18 6.89062C11.8688 6.89062 6.89062 11.8688 6.89062 18C6.89062 24.1312 11.8688 29.1094 18 29.1094C22.1063 29.1094 25.7062 26.8594 27.6187 23.5406L23.9906 21.4031Z" fill="white"/>
</svg>
