<svg width="35" height="49" viewBox="0 0 35 49" fill="none" xmlns="http://www.w3.org/2000/svg">
<g clip-path="url(#clip0_516_64)">
<path d="M17.4789 48.8762L3.23523 44.9505L0.0610352 9.60535H34.9393L31.7619 44.9451L17.4789 48.8762Z" fill="#264DE4"/>
<path d="M29.0414 42.6947L31.7566 12.4953H17.5V45.8713L29.0414 42.6947Z" fill="#2965F1"/>
<path d="M7.33768 25.6043L7.72896 29.9393H17.5001V25.6043H7.33768ZM6.55127 16.8304L6.94816 21.1653H17.5001V16.8304H6.55127ZM17.5001 36.8627L17.481 36.8677L12.6182 35.5641L12.3073 32.1068H7.92406L8.53574 38.9133L17.48 41.3783L17.5001 41.3728V36.8627Z" fill="#EBEBEB"/>
<path d="M8.26953 0H13.5578V2.19563H10.4811V4.39127H13.5581V6.58677H8.26953V0ZM14.6156 0H19.904V1.90924H16.8272V2.29106H19.904V6.68232H14.6157V4.6774H17.6926V4.29558H14.6155L14.6156 0ZM20.9618 0H26.2502V1.90924H23.1734V2.29106H26.2502V6.68232H20.9618V4.6774H24.0387V4.29558H20.962V0H20.9618Z" fill="white"/>
<path d="M27.6346 25.6043L28.4228 16.8304H17.485V21.1653H23.6376L23.2403 25.6043H17.485V29.9393H22.8617L22.3548 35.5614L17.4849 36.8663V41.3762L26.4362 38.9133L26.5019 38.1809L27.5281 26.7684L27.6346 25.6043Z" fill="white"/>
</g>
<defs>
<clipPath id="clip0_516_64">
<rect width="35" height="49" fill="white"/>
</clipPath>
</defs>
</svg>
