<svg width="119" height="34" viewBox="0 0 119 34" fill="none" xmlns="http://www.w3.org/2000/svg">
<g clip-path="url(#clip0_516_108)">
<path d="M0.77443 26.3851V13.3828H17.3099V12.6222H0.77443V0.760322H18.3553V0H0V27.1455H18.5101V26.3851H0.77443ZM33.4192 7.60368L26.5651 16.4622L19.8656 7.60391H18.8587L26.1003 17.0326L18.1614 27.1452H19.0909L26.5647 17.6024L34.0772 27.1452H35.0453L27.0681 17.0322L34.3482 7.60345H33.419L33.4192 7.60368ZM37.369 33.8368V21.671H37.4464C37.9113 23.4452 38.8277 24.8709 40.196 25.9482C41.5642 27.0252 43.3067 27.564 45.4236 27.564C46.7919 27.564 48.0053 27.2915 49.0638 26.7466C50.1222 26.2017 51.0064 25.4603 51.7164 24.5224C52.4262 23.5846 52.9685 22.4948 53.3429 21.2527C53.7171 20.0109 53.9044 18.7055 53.9044 17.337C53.9044 15.8668 53.7106 14.5107 53.3234 13.2689C52.9362 12.0269 52.3746 10.9496 51.639 10.0373C50.9032 9.12478 50.0125 8.41489 48.9669 7.90831C47.9214 7.40128 46.7403 7.14776 45.4236 7.14776C44.4168 7.14776 43.481 7.29357 42.6162 7.58497C41.7513 7.87659 40.9834 8.28824 40.3122 8.8206C39.637 9.35706 39.0493 9.99167 38.5695 10.7025C38.0791 11.4249 37.7046 12.217 37.4464 13.0788H37.369V7.60368H36.5946V33.8368H37.369ZM45.4236 26.8413C42.9971 26.8413 41.0478 26.0239 39.5763 24.3892C38.1049 22.7544 37.369 20.4034 37.369 17.3366C37.369 16.0692 37.5498 14.8653 37.9113 13.7248C38.2727 12.5843 38.7954 11.583 39.4794 10.7214C40.1637 9.85954 41.0092 9.17521 42.0158 8.6684C43.0227 8.16137 44.1588 7.90785 45.4236 7.90785C46.7145 7.90785 47.844 8.16137 48.8121 8.6684C49.7801 9.17521 50.5806 9.86593 51.213 10.7403C51.8454 11.6148 52.323 12.6161 52.6459 13.7438C52.9685 14.8717 53.1298 16.0692 53.1298 17.3366C53.1298 18.4773 52.9815 19.6116 52.6845 20.7393C52.3877 21.8672 51.9293 22.8811 51.3097 23.7811C50.6903 24.6806 49.8966 25.4156 48.9283 25.986C47.96 26.5563 46.7919 26.8413 45.4236 26.8413ZM58.164 27.1455V16.082C58.164 15.0175 58.3188 13.9781 58.6289 12.9645C58.9385 11.9507 59.4161 11.0571 60.0615 10.2842C60.707 9.5111 61.5265 8.90275 62.5206 8.45915C63.5144 8.01556 64.6956 7.83187 66.0638 7.90785V7.14753C64.8761 7.12243 63.8372 7.24885 62.9466 7.52769C62.0557 7.80654 61.2878 8.1867 60.6424 8.6684C59.9969 9.14988 59.4807 9.71373 59.0935 10.3602C58.7066 11.0056 58.4194 11.7039 58.2414 12.4321H58.164V7.60368H57.3896V27.1457L58.164 27.1455ZM67.0319 17.5267H83.6833C83.7351 16.1833 83.5996 14.8909 83.2768 13.6488C82.9542 12.4068 82.4377 11.3042 81.7279 10.3412C81.0178 9.37807 80.1014 8.60497 78.9783 8.02195C77.8553 7.43893 76.5193 7.14753 74.9705 7.14753C73.8602 7.14753 72.7759 7.37572 71.7175 7.83209C70.659 8.28824 69.7296 8.95341 68.9294 9.82783C68.1291 10.7022 67.4837 11.7731 66.9933 13.0407C66.5029 14.3078 66.2574 15.7525 66.2574 17.3747C66.2574 18.8193 66.4252 20.1691 66.7609 21.4237C67.0965 22.6782 67.6127 23.7683 68.3097 24.6934C69.007 25.6184 69.9041 26.3345 71.0012 26.8413C72.0982 27.3483 73.4214 27.5891 74.9705 27.5637C77.2422 27.5637 79.1527 26.9362 80.7015 25.6819C82.2506 24.4271 83.1671 22.6593 83.4511 20.3781H82.6766C82.341 22.5326 81.4825 24.1484 80.1014 25.2255C78.7201 26.3028 76.9842 26.8413 74.8928 26.8413C73.473 26.8413 72.2725 26.6006 71.2915 26.1191C70.3106 25.6376 69.5102 24.9784 68.8905 24.1421C68.2711 23.3055 67.8128 22.3234 67.516 21.1955C67.219 20.0678 67.0577 18.8447 67.0319 17.5267ZM82.9088 16.7663H67.0321C67.1093 15.3977 67.3675 14.1684 67.8063 13.0786C68.2453 11.9885 68.8197 11.0571 69.5297 10.2842C70.2395 9.5111 71.0658 8.92192 72.008 8.5162C72.9503 8.11071 73.9636 7.90785 75.0479 7.90785C76.3387 7.90785 77.4743 8.14243 78.4556 8.61136C79.4365 9.08028 80.2562 9.72035 80.9147 10.5313C81.5729 11.3423 82.0698 12.2866 82.4054 13.3636C82.741 14.4409 82.9088 15.5752 82.9088 16.7663ZM99.7541 13.3828H100.529C100.529 11.2029 99.8831 9.61881 98.5924 8.6303C97.3013 7.64179 95.5458 7.14753 93.3258 7.14753C92.0865 7.14753 91.041 7.29973 90.189 7.60391C89.3372 7.90785 88.6401 8.30079 88.0979 8.78227C87.5559 9.26375 87.1687 9.79611 86.9362 10.3791C86.7038 10.9621 86.5876 11.5198 86.5876 12.052C86.5876 13.1165 86.7812 13.9656 87.1687 14.5992C87.5559 15.2329 88.1625 15.7272 88.9885 16.082C89.5566 16.3353 90.2018 16.5635 90.9248 16.7666C91.6477 16.9692 92.4867 17.1846 93.442 17.4126C94.2938 17.6157 95.1328 17.8183 95.9591 18.0209C96.7851 18.2238 97.5145 18.4962 98.1469 18.8383C98.7795 19.1806 99.2957 19.6178 99.696 20.1501C100.096 20.6823 100.296 21.3794 100.296 22.241C100.296 23.0776 100.096 23.7872 99.696 24.37C99.2991 24.95 98.7769 25.4369 98.1664 25.796C97.5468 26.1633 96.856 26.4294 96.0946 26.5942C95.3329 26.7589 94.5908 26.8413 93.868 26.8413C91.5187 26.8413 89.7179 26.3281 88.4658 25.3017C87.2138 24.2751 86.5878 22.6593 86.5878 20.4541H85.8132C85.8132 22.9128 86.4909 24.7123 87.8462 25.853C89.2017 26.9935 91.2088 27.5637 93.868 27.5637C94.7198 27.5637 95.5782 27.4686 96.4432 27.2785C97.3078 27.0884 98.0825 26.7781 98.7665 26.347C99.4447 25.9221 100.014 25.3498 100.432 24.6744C100.858 23.9899 101.071 23.1535 101.071 22.165C101.071 21.2272 100.883 20.4669 100.509 19.8838C100.135 19.301 99.6444 18.8193 99.0375 18.4392C98.4309 18.059 97.7469 17.7612 96.9852 17.5458C96.2193 17.3291 95.4512 17.12 94.681 16.9183C93.7332 16.6742 92.7844 16.4334 91.8348 16.1961C91.0218 15.9932 90.2666 15.7525 89.5696 15.4737C88.8983 15.1948 88.3626 14.7957 87.9624 14.2761C87.5622 13.7565 87.3623 13.0152 87.3623 12.052C87.3623 11.8747 87.4139 11.5577 87.5171 11.1016C87.6203 10.6452 87.8657 10.1827 88.2529 9.71373C88.6401 9.24503 89.2337 8.82677 90.0342 8.45915C90.8344 8.09177 91.9317 7.90785 93.3258 7.90785C94.281 7.90785 95.1521 8.0094 95.9396 8.21203C96.727 8.41489 97.4048 8.738 97.9726 9.1816C98.5406 9.6252 98.9794 10.189 99.2892 10.8734C99.599 11.5579 99.7541 12.3943 99.7541 13.3828ZM117.683 13.3828H118.458C118.458 11.2029 117.813 9.61881 116.522 8.6303C115.231 7.64179 113.475 7.14753 111.255 7.14753C110.016 7.14753 108.97 7.29973 108.118 7.60391C107.266 7.90785 106.569 8.30079 106.027 8.78227C105.485 9.26375 105.098 9.79611 104.865 10.3791C104.633 10.9621 104.517 11.5198 104.517 12.052C104.517 13.1165 104.711 13.9656 105.098 14.5992C105.485 15.2329 106.092 15.7272 106.918 16.082C107.486 16.3353 108.131 16.5635 108.854 16.7666C109.577 16.9692 110.416 17.1846 111.371 17.4126C112.223 17.6157 113.062 17.8183 113.888 18.0209C114.715 18.2238 115.444 18.4962 116.076 18.8383C116.709 19.1806 117.225 19.6178 117.625 20.1501C118.025 20.6823 118.226 21.3794 118.226 22.241C118.226 23.0776 118.025 23.7872 117.625 24.37C117.228 24.95 116.706 25.4369 116.096 25.796C115.476 26.1633 114.785 26.4294 114.024 26.5942C113.262 26.7589 112.52 26.8413 111.797 26.8413C109.448 26.8413 107.647 26.3281 106.395 25.3017C105.143 24.2751 104.517 22.6593 104.517 20.4541H103.743C103.743 22.9128 104.42 24.7123 105.776 25.853C107.131 26.9935 109.138 27.5637 111.797 27.5637C112.649 27.5637 113.508 27.4686 114.372 27.2785C115.237 27.0884 116.012 26.7781 116.696 26.347C117.374 25.9221 117.944 25.3498 118.361 24.6744C118.787 23.9899 119 23.1535 119 22.165C119 21.2272 118.813 20.4669 118.438 19.8838C118.064 19.301 117.574 18.8193 116.967 18.4392C116.36 18.059 115.676 17.7612 114.915 17.5458C114.149 17.3291 113.381 17.12 112.61 16.9183C111.663 16.6742 110.714 16.4334 109.764 16.1961C108.951 15.9932 108.196 15.7525 107.499 15.4737C106.828 15.1948 106.292 14.7957 105.892 14.2761C105.492 13.7565 105.292 13.0152 105.292 12.052C105.292 11.8747 105.343 11.5577 105.447 11.1016C105.55 10.6452 105.795 10.1827 106.182 9.71373C106.569 9.24503 107.163 8.82677 107.963 8.45915C108.764 8.09177 109.861 7.90785 111.255 7.90785C112.21 7.90785 113.082 8.0094 113.869 8.21203C114.657 8.41489 115.334 8.738 115.902 9.1816C116.47 9.6252 116.909 10.189 117.219 10.8734C117.529 11.5579 117.684 12.3943 117.684 13.3828H117.683Z" fill="#F5F5F5"/>
</g>
<defs>
<clipPath id="clip0_516_108">
<rect width="119" height="34" fill="white"/>
</clipPath>
</defs>
</svg>
