<svg width="35" height="49" viewBox="0 0 35 49" fill="none" xmlns="http://www.w3.org/2000/svg">
<g clip-path="url(#clip0_516_58)">
<path d="M34.9394 9.60535L31.7619 44.9451L17.4789 48.8762L3.23523 44.9505L0.0610352 9.60535H34.9394Z" fill="#E44D26"/>
<path d="M17.5 45.8713L29.0414 42.6947L31.7566 12.4953H17.5V45.8713Z" fill="#F16529"/>
<path d="M11.3232 21.1653H17.5001V16.8304H6.55127L6.65572 17.9933L7.72896 29.9393H17.5001V25.6043H11.7222L11.3232 21.1653ZM12.3073 32.1068H7.92406L8.53574 38.9133L17.48 41.3783L17.5001 41.3728V36.8627L17.481 36.8677L12.6182 35.5641L12.3073 32.1068Z" fill="#EBEBEB"/>
<path d="M3.30566 0H5.52461V2.1765H7.55447V0H9.77355V6.59097H7.55461V4.38394H5.52475V6.59097H3.3058L3.30566 0ZM12.6914 2.18573H10.7382V0H16.8652V2.18573H14.9108V6.59097H12.6918V2.18573H12.6914ZM17.8375 0H20.1512L21.5744 2.31589L22.9963 0H25.311V6.59097H23.101V3.32413L21.5744 5.66758H21.5362L20.0086 3.32413V6.59097H17.8375V0ZM26.4152 0H28.6349V4.41244H31.7553V6.59097H26.4151V0H26.4152Z" fill="black"/>
<path d="M17.485 29.9393H22.8617L22.3548 35.5614L17.4849 36.8663V41.3762L26.4362 38.9133L26.5019 38.1809L27.5281 26.7684L27.6346 25.6043H17.485V29.9393ZM17.485 21.1547V21.1653H28.0319L28.1194 20.191L28.3185 17.9933L28.4228 16.8304H17.485V21.1547Z" fill="white"/>
</g>
<defs>
<clipPath id="clip0_516_58">
<rect width="35" height="49" fill="white"/>
</clipPath>
</defs>
</svg>
