<svg width="35" height="35" viewBox="0 0 35 35" fill="none" xmlns="http://www.w3.org/2000/svg">
<path d="M13.0204 26.8297C13.0204 26.8297 11.7169 27.5882 13.9493 27.8441C16.6541 28.1531 18.0364 28.1088 21.0163 27.5455C21.0163 27.5455 21.8013 28.0364 22.8956 28.4618C16.2131 31.3247 7.77233 28.2959 13.0204 26.8297ZM12.2034 23.0932C12.2034 23.0932 10.741 24.1757 12.9753 24.407C15.8647 24.7054 18.146 24.7297 22.0955 23.9695C22.0955 23.9695 22.6405 24.5232 23.4988 24.8257C15.4209 27.1882 6.42374 25.0116 12.2034 23.0932Z" fill="#0074BD"/>
<path d="M19.0864 16.7538C20.7338 18.6501 18.6544 20.355 18.6544 20.355C18.6544 20.355 22.8349 18.1973 20.9154 15.4941C19.1219 12.9743 17.7471 11.7228 25.1906 7.40578C25.1906 7.40606 13.5063 10.3234 19.0864 16.7538Z" fill="#EA2D2E"/>
<path d="M27.9243 29.5939C27.9243 29.5939 28.8893 30.3896 26.8612 31.0045C23.0052 32.1727 10.8088 32.5248 7.42146 31.0513C6.20439 30.5214 8.48759 29.7866 9.20591 29.6316C9.95485 29.4694 10.3825 29.499 10.3825 29.499C9.02817 28.5455 1.62896 31.372 6.62466 32.1828C20.2476 34.3911 31.4574 31.1883 27.9243 29.5939ZM13.6479 19.221C13.6479 19.221 7.4447 20.6946 11.4514 21.2302C13.1434 21.4566 16.5149 21.4047 19.6575 21.1411C22.2251 20.9253 24.8017 20.4646 24.8017 20.4646C24.8017 20.4646 23.8972 20.8526 23.242 21.2994C16.9415 22.9567 4.77294 22.1848 8.27649 20.4906C11.2384 19.058 13.6479 19.221 13.6479 19.221ZM24.776 25.4409C31.1802 22.114 28.2188 18.9167 26.1519 19.3473C25.6466 19.4526 25.4199 19.5442 25.4199 19.5442C25.4199 19.5442 25.6081 19.2492 25.9668 19.1223C30.0555 17.6854 33.1995 23.3614 24.648 25.6096C24.648 25.6091 24.7462 25.5202 24.776 25.4409Z" fill="#0074BD"/>
<path d="M20.9155 0.433945C20.9155 0.433945 24.4615 3.98207 17.5514 9.43633C12.01 13.813 16.2879 16.3078 17.5495 19.1595C14.3145 16.2411 11.9416 13.6716 13.5333 11.2804C15.8706 7.77109 22.3459 6.06894 20.9155 0.433945Z" fill="#EA2D2E"/>
<path d="M14.2775 34.4589C20.4233 34.8518 29.8634 34.2401 30.0868 31.3318C30.0868 31.3318 29.6573 32.4343 25.0072 33.3091C19.761 34.2967 13.2893 34.1816 9.45215 33.548C9.45215 33.5483 10.2383 34.1991 14.2775 34.4589Z" fill="#0074BD"/>
</svg>
