<svg width="35" height="35" viewBox="0 0 35 35" fill="none" xmlns="http://www.w3.org/2000/svg">
<g clip-path="url(#clip0_516_4)">
<path d="M0.384766 0.384998H34.6148V34.6153H0.384766V0.384998Z" fill="#F0DB4F"/>
<path d="M31.8138 26.4513C31.5631 24.8897 30.5448 23.578 27.5285 22.3549C26.4807 21.8734 25.3126 21.5286 24.9645 20.7345C24.8409 20.2724 24.8245 20.0121 24.9027 19.7323C25.1272 18.8245 26.2108 18.5415 27.0697 18.8018C27.6228 18.9872 28.1465 19.4135 28.4623 20.0936C29.9394 19.1371 29.9364 19.1434 30.9678 18.486C30.5902 17.9006 30.3887 17.6304 30.1415 17.38C29.2531 16.3877 28.0426 15.8766 26.1066 15.9157L25.0982 16.0461C24.1319 16.2903 23.2109 16.7975 22.6709 17.4776C21.0505 19.3162 21.5126 22.534 23.4844 23.8582C25.4269 25.3162 28.2805 25.6479 28.645 27.0113C28.9996 28.6803 27.4183 29.2206 25.8466 29.0287C24.6883 28.7878 24.0441 28.1991 23.3477 27.1286C22.0658 27.8704 22.0658 27.8704 20.7478 28.6284C21.0603 29.3117 21.3887 29.6209 21.9127 30.2129C24.3922 32.728 30.597 32.6044 31.7099 28.7976C31.755 28.6669 32.0547 27.7952 31.8138 26.4513ZM18.9937 16.1172H15.792L15.7789 24.3947C15.7789 26.1551 15.87 27.7689 15.5837 28.2636C15.1153 29.2365 13.9015 29.1159 13.3483 28.9272C12.7853 28.6505 12.499 28.257 12.1673 27.7009C12.0763 27.5412 12.0079 27.4176 11.985 27.408L9.38184 29.0022C9.81469 29.8906 10.4523 30.6616 11.2691 31.1626C12.4892 31.8948 14.129 32.1193 15.844 31.7256C16.9602 31.4005 17.9232 30.727 18.4274 29.7019C19.1564 28.3579 19 26.7313 18.9934 24.932C19.0098 21.9967 18.9937 19.0619 18.9937 16.1172Z" fill="#323330"/>
</g>
<defs>
<clipPath id="clip0_516_4">
<rect width="35" height="35" fill="white"/>
</clipPath>
</defs>
</svg>
