<svg width="40" height="40" viewBox="0 0 40 40" fill="none" xmlns="http://www.w3.org/2000/svg">
<path d="M0.625312 28.2681H1.90906V23.1984L3.89656 27.6181C4.13094 28.1531 4.45187 28.3422 5.08156 28.3422C5.71125 28.3422 6.02 28.1531 6.25437 27.6181L8.24188 23.1984V28.2681H9.52563V23.2069C9.52563 22.7131 9.32812 22.4741 8.92062 22.3509C7.94531 22.0466 7.29094 22.31 6.99469 22.9684L5.04438 27.3303L3.15594 22.9681C2.87187 22.31 2.20531 22.0466 1.23 22.3506C0.8225 22.4741 0.625 22.7128 0.625 23.2066L0.625312 28.2681ZM10.5934 24.1413H11.8769V26.9344C11.865 27.0859 11.9256 27.4422 12.6287 27.4534C12.9875 27.4591 15.3981 27.4534 15.4206 27.4534V24.1275H16.7072C16.7131 24.1275 16.7059 28.6631 16.7059 28.6819C16.7128 29.8006 15.3181 30.0434 14.675 30.0622H10.6212V29.1984C10.6281 29.1984 14.6722 29.1994 14.6822 29.1981C15.5088 29.1109 15.4109 28.7003 15.4106 28.5622V28.2253H12.6822C11.4128 28.2138 10.6041 27.6597 10.5938 27.0222C10.5931 26.9638 10.6216 24.1694 10.5934 24.1413Z" fill="#00618A"/>
<path d="M17.6968 28.2681H21.388C21.8202 28.2681 22.2402 28.1778 22.5733 28.0216C23.1287 27.7666 23.4002 27.4209 23.4002 26.9678V26.0297C23.4002 25.6594 23.0918 25.3134 22.4868 25.0834C22.1658 24.9597 21.7705 24.8944 21.3877 24.8944H19.8321C19.3137 24.8944 19.0668 24.7381 19.0052 24.3925C18.993 24.3512 18.993 24.3184 18.993 24.2772V23.6928C18.993 23.66 18.993 23.6269 19.0052 23.5859C19.0668 23.3225 19.2027 23.2484 19.6596 23.2072L19.783 23.1991H23.4496V22.3434H19.8449C19.3265 22.3434 19.0549 22.3762 18.808 22.4503C18.0427 22.6891 17.709 23.0675 17.709 23.7259V24.4747C17.709 25.0509 18.3637 25.5447 19.4621 25.66C19.5858 25.6678 19.709 25.6766 19.8324 25.6766H21.1658C21.2152 25.6766 21.2646 25.6766 21.3018 25.6844C21.7093 25.7172 21.8818 25.7916 22.0055 25.9394C22.0372 25.9687 22.0624 26.0043 22.0794 26.044C22.0963 26.0837 22.1047 26.1265 22.104 26.1697V26.9187C22.104 27.0091 22.0424 27.1244 21.919 27.2231C21.808 27.3219 21.6227 27.3878 21.3758 27.4044L21.2399 27.4125H17.6968V28.2681ZM31.4096 26.7787C31.4096 27.6591 32.064 28.1528 33.3846 28.2519C33.508 28.26 33.6315 28.2681 33.7549 28.2681H37.1005V27.4125H33.7305C32.9774 27.4125 32.6937 27.2231 32.6937 26.7703V22.3428H31.4099L31.4096 26.7787ZM24.2196 26.8231V23.7716C24.2196 22.9966 24.764 22.5262 25.8402 22.3778C25.9549 22.3614 26.0706 22.3531 26.1865 22.3531H28.6237C28.7474 22.3531 28.8587 22.3612 28.9821 22.3778C30.0583 22.5262 30.603 22.9962 30.603 23.7716V26.8231C30.603 27.4525 30.3718 27.7887 29.839 28.0081L31.104 29.1497H29.613L28.5899 28.2259L27.5599 28.2912H26.1865C25.9313 28.2896 25.6776 28.2536 25.4321 28.1841C24.6155 27.9616 24.2196 27.5325 24.2196 26.8231ZM25.6052 26.7491C25.6052 26.7903 25.6174 26.8319 25.6299 26.8812C25.704 27.2359 26.0383 27.4337 26.5452 27.4337H27.7115L26.6402 26.4666H28.1312L29.0652 27.3103C29.2377 27.2181 29.3508 27.0781 29.3905 26.8978C29.4027 26.8566 29.4027 26.8153 29.4027 26.7741V23.8466C29.4027 23.8137 29.4027 23.7722 29.3905 23.7309C29.3162 23.4009 28.9821 23.2116 28.4874 23.2116H26.5449C25.9762 23.2116 25.6049 23.4591 25.6049 23.8466L25.6052 26.7491Z" fill="#E48E00"/>
<path d="M38.2302 20.9225C37.4412 20.9009 36.8383 20.9744 36.3227 21.1916C36.1762 21.2534 35.9427 21.255 35.919 21.4384C35.9993 21.5231 36.0118 21.6491 36.0758 21.7528C36.199 21.9519 36.4068 22.2187 36.5921 22.3584C36.7943 22.5112 37.003 22.675 37.2205 22.8075C37.6065 23.0431 38.0377 23.1775 38.4099 23.4131C38.629 23.5525 38.8465 23.7275 39.0605 23.8847C39.1665 23.9619 39.2371 24.0828 39.3749 24.1312V24.1091C39.3027 24.0172 39.284 23.8909 39.2177 23.7947L38.9258 23.5028C38.6405 23.1241 38.2787 22.7919 37.8933 22.5156C37.5865 22.2953 36.8996 21.9975 36.7715 21.6403L36.749 21.6181C36.9665 21.5934 37.2215 21.5147 37.4221 21.4609C37.7596 21.3703 38.0612 21.3937 38.4096 21.3037L38.8808 21.1687V21.0794C38.7049 20.8988 38.579 20.6594 38.3871 20.4959C37.8849 20.0681 37.3362 19.6406 36.7715 19.2837C36.4583 19.0862 36.0712 18.9578 35.739 18.7903C35.6277 18.7337 35.4315 18.7047 35.3574 18.6106C35.1827 18.3884 35.088 18.1069 34.9533 17.8478C34.6657 17.2882 34.3963 16.7193 34.1455 16.1422C33.9755 15.7531 33.8643 15.3694 33.6521 15.0203C32.633 13.345 31.5362 12.3337 29.8371 11.34C29.4755 11.1284 29.0402 11.0453 28.5805 10.9362L27.8399 10.8912C27.6896 10.8284 27.5327 10.6441 27.3912 10.5547C26.828 10.1991 25.3843 9.42562 24.9674 10.4428C24.7043 11.0847 25.3612 11.7109 25.5958 12.0362C25.7605 12.2644 25.9718 12.52 26.0896 12.7766C26.1671 12.9453 26.1802 13.1144 26.2468 13.2928C26.4096 13.7322 26.5518 14.2106 26.7627 14.6166C26.8693 14.8222 26.9871 15.0387 27.1218 15.2225C27.2043 15.335 27.3462 15.385 27.3683 15.5591C27.2299 15.7528 27.2218 16.0541 27.144 16.2994C26.7933 17.4053 26.9255 18.78 27.4358 19.5984C27.5924 19.85 27.9612 20.3887 28.468 20.1819C28.9115 20.0012 28.8127 19.4416 28.9396 18.9475C28.9683 18.8359 28.9505 18.7534 29.0068 18.6784V18.7009L29.4108 19.5087C29.7099 19.9903 30.2402 20.4931 30.6899 20.8328C30.923 21.0087 31.1068 21.3134 31.408 21.4162V21.3934H31.3858C31.3271 21.3025 31.2362 21.265 31.1612 21.1916C30.9855 21.0194 30.7902 20.8056 30.6452 20.6081C30.2362 20.0531 29.8749 19.4453 29.5455 18.8128C29.3883 18.5109 29.2518 18.1778 29.1193 17.8703C29.068 17.7519 29.0687 17.5725 28.9624 17.5116C28.8168 17.7366 28.6033 17.9187 28.4908 18.1847C28.3115 18.6097 28.2883 19.1281 28.2218 19.6656L28.1768 19.6878C27.864 19.6125 27.7543 19.2906 27.638 19.0147C27.3443 18.3169 27.2896 17.1928 27.5483 16.3894C27.6152 16.1812 27.9174 15.5266 27.7949 15.3344C27.7365 15.1428 27.5437 15.0322 27.4362 14.8853C27.2951 14.6888 27.1748 14.4782 27.0771 14.2569C26.8365 13.7128 26.7243 13.1019 26.4715 12.5516C26.3502 12.2884 26.1458 12.0225 25.9777 11.7887C25.7918 11.5294 25.5833 11.3387 25.439 11.0256C25.3877 10.9144 25.318 10.7359 25.394 10.6216C25.418 10.5444 25.4527 10.5122 25.529 10.4869C25.659 10.3866 26.0215 10.5203 26.1571 10.5766C26.5171 10.7262 26.8174 10.8684 27.1224 11.0703C27.2687 11.1675 27.4165 11.355 27.5937 11.4069H27.7955C28.1115 11.4794 28.4655 11.4291 28.7605 11.5187C29.2824 11.6775 29.7499 11.9241 30.1743 12.1922C31.4677 13.0091 32.5249 14.1716 33.2487 15.5584C33.3649 15.7819 33.4155 15.9947 33.5177 16.2316C33.7246 16.7091 33.9852 17.2006 34.1908 17.6678C34.3962 18.1337 34.5965 18.6041 34.8868 18.9919C35.0393 19.1956 35.6287 19.305 35.8965 19.4181C36.0843 19.4975 36.3918 19.5803 36.5696 19.6872C36.9093 19.8922 37.2387 20.1362 37.5571 20.3606C37.7162 20.4737 38.2058 20.7197 38.2302 20.9225ZM28.1993 12.3728C28.0632 12.3706 27.9274 12.3857 27.7952 12.4178V12.44H27.8177C27.8962 12.6016 28.0346 12.7053 28.1318 12.8441L28.3565 13.3153L28.3787 13.2931C28.5177 13.1953 28.5812 13.0387 28.5805 12.7994C28.5246 12.7406 28.5165 12.6672 28.4683 12.5975C28.4046 12.5037 28.2802 12.4512 28.1993 12.3728Z" fill="#00618A"/>
</svg>
