<svg width="36" height="35" viewBox="0 0 36 35" fill="none" xmlns="http://www.w3.org/2000/svg">
<g clip-path="url(#clip0_516_102)">
<path d="M21.1971 0C20.9368 0 20.6951 0.0544902 20.4719 0.127098C20.9461 0.43551 21.2064 0.843843 21.3365 1.30667C21.3459 1.37022 21.3645 1.41565 21.3737 1.47906C21.383 1.53355 21.3923 1.58804 21.3923 1.64239C21.4296 2.44094 21.1785 2.54073 21.0018 3.01261C20.7322 3.62065 20.8066 4.27398 21.132 4.80022C21.1598 4.86376 21.1971 4.93637 21.2435 4.99992C20.8903 2.70406 22.852 2.35927 23.2145 1.64239C23.2424 1.01637 22.7125 0.598843 22.2941 0.308549C21.8943 0.0724706 21.5318 0 21.1971 0ZM24.1535 0.517176C24.1163 0.725941 24.1442 0.671451 24.1349 0.780431C24.1256 0.853039 24.1256 0.943765 24.1163 1.01637C24.0978 1.08884 24.0792 1.16145 24.0512 1.23406C24.0327 1.3068 24.0048 1.37927 23.977 1.45188C23.9397 1.52449 23.9119 1.58804 23.8746 1.66051C23.8468 1.69688 23.8282 1.73325 23.8002 1.76949L23.7445 1.85116C23.6981 1.91471 23.6516 1.97825 23.605 2.03261C23.5492 2.0871 23.5028 2.15065 23.4377 2.19594V2.205C23.3819 2.25043 23.3262 2.30492 23.2611 2.35022C23.0659 2.49543 22.8427 2.60427 22.6381 2.74043C22.5731 2.78573 22.508 2.8221 22.4522 2.87659C22.3871 2.92188 22.3312 2.96718 22.2756 3.0218C22.2105 3.07616 22.164 3.13065 22.1082 3.1942C22.0618 3.24855 22.006 3.31224 21.9687 3.37565C21.9223 3.4392 21.8759 3.50261 21.8386 3.56616C21.8014 3.6389 21.7735 3.70231 21.7363 3.77478C21.7084 3.84753 21.6806 3.91108 21.662 3.98355C21.634 4.06522 21.6155 4.13782 21.5969 4.21043C21.5876 4.2468 21.5876 4.2921 21.5783 4.32847C21.5689 4.36471 21.5689 4.40108 21.5598 4.43731C21.5598 4.50992 21.5504 4.59159 21.5504 4.6642C21.5504 4.71869 21.5504 4.77304 21.5598 4.82753C21.5598 4.90014 21.5691 4.97274 21.5876 5.05441C21.5969 5.12702 21.6155 5.19949 21.634 5.2721C21.662 5.34484 21.6806 5.41731 21.7086 5.48992C21.727 5.53522 21.755 5.58065 21.7735 5.61702L19.6353 4.80941C19.2782 4.71015 18.9186 4.61935 18.5569 4.5371L17.9712 4.40108C17.4133 4.2921 16.8462 4.21043 16.2792 4.15608C16.2606 4.15608 16.2512 4.14688 16.2328 4.14688C15.6797 4.09252 15.1243 4.06526 14.5685 4.06522C14.1594 4.06522 13.7503 4.08333 13.3507 4.11051C12.7834 4.14688 12.2164 4.21949 11.6491 4.31022C11.5097 4.32847 11.3702 4.35565 11.2309 4.38296C10.9426 4.43731 10.6637 4.50086 10.3942 4.56441L9.97566 4.67325C9.8363 4.72774 9.70608 4.79129 9.576 4.84565L9.26916 4.9818C9.25059 4.99086 9.23189 4.99086 9.22275 4.99992C9.12966 5.04522 9.04598 5.08159 8.96231 5.12688C8.93991 5.13431 8.91814 5.14344 8.8972 5.1542C8.79497 5.19949 8.69273 5.25398 8.60906 5.29941C8.54395 5.32659 8.47884 5.36282 8.42316 5.39C8.39618 5.40669 8.36824 5.42186 8.33948 5.43543C8.25581 5.48073 8.17214 5.52616 8.09761 5.57159C8.0207 5.61284 7.94624 5.6583 7.87458 5.70774C7.80947 5.75304 7.7445 5.78941 7.68867 5.83471C7.67939 5.84376 7.67011 5.84376 7.66069 5.85282C7.605 5.8892 7.53989 5.93449 7.48406 5.97992L7.4655 5.99804L7.32614 6.10688C7.30744 6.11608 7.28888 6.1342 7.27031 6.14325C7.22391 6.17949 7.17736 6.22492 7.13081 6.26129C7.12153 6.27927 7.10297 6.28847 7.09369 6.29753C7.03786 6.35202 6.98203 6.39731 6.92634 6.4518C6.91692 6.4518 6.91692 6.46086 6.90778 6.46992C6.85195 6.51522 6.79612 6.56971 6.74044 6.6242C6.73102 6.63325 6.73102 6.64231 6.72173 6.64231C6.67533 6.68761 6.62892 6.73304 6.58237 6.78753C6.56381 6.80565 6.53597 6.82376 6.51727 6.84188C6.47086 6.89637 6.41503 6.95086 6.3592 7.00522C6.34992 7.02347 6.33136 7.03253 6.32194 7.05065C6.24769 7.12325 6.18258 7.19586 6.10819 7.26847L6.08034 7.29565C5.93156 7.44992 5.7735 7.6042 5.60616 7.74035C5.4413 7.88394 5.26738 8.01729 5.08542 8.13963C4.90515 8.26302 4.71904 8.37807 4.5277 8.48441C4.33795 8.58598 4.1424 8.67685 3.942 8.75659C3.74423 8.83862 3.54253 8.91131 3.33759 8.97441C2.94722 9.05608 2.54728 9.21035 2.20345 9.23753C2.12892 9.23753 2.04539 9.25565 1.971 9.26471C1.89328 9.2819 1.81579 9.30007 1.73855 9.3192L1.51538 9.40086C1.44098 9.42804 1.36673 9.46441 1.29234 9.50065C1.22723 9.54594 1.15284 9.58231 1.08773 9.62774C1.02263 9.67304 0.957656 9.72753 0.901828 9.78202C0.836719 9.82731 0.771609 9.89086 0.715922 9.94535C0.660094 10.0089 0.604266 10.0634 0.557859 10.1268C0.511453 10.1994 0.455625 10.263 0.418359 10.3354C0.371953 10.3991 0.325406 10.4716 0.288141 10.5442C0.251016 10.6259 0.213891 10.6985 0.185906 10.7803C0.156581 10.8584 0.128686 10.937 0.102234 11.0161C0.0836719 11.0887 0.0651094 11.1613 0.0558281 11.2339C0.0558281 11.243 0.0464063 11.252 0.0464063 11.2611C0.0278438 11.3427 0.0278437 11.4517 0.0185625 11.5061C0.00928125 11.5696 0 11.6241 0 11.6875C0 11.7239 0 11.7692 0.00928125 11.8056C0.0185625 11.8691 0.0278437 11.9236 0.0465469 11.978C0.0651094 12.0324 0.0836719 12.0868 0.111656 12.1413V12.1504C0.1395 12.2048 0.176625 12.2593 0.213891 12.3137C0.251016 12.3682 0.288281 12.4227 0.334828 12.477C0.381234 12.5223 0.436922 12.5769 0.49275 12.6222C0.548578 12.6767 0.604406 12.722 0.669375 12.7674C0.892547 12.958 0.948375 13.0215 1.23652 13.1667C1.28292 13.1939 1.32947 13.212 1.3853 13.2393C1.39458 13.2393 1.40386 13.2484 1.41314 13.2484C1.41314 13.2665 1.41314 13.2756 1.42256 13.2937C1.43184 13.3664 1.45041 13.4389 1.46897 13.5115C1.48753 13.5932 1.51537 13.6658 1.54336 13.7293C1.5712 13.7838 1.58977 13.8382 1.61775 13.8927C1.62703 13.9108 1.63631 13.929 1.64559 13.938C1.68286 14.0107 1.72012 14.0741 1.75725 14.1377L1.89661 14.3282C1.94302 14.3827 1.99884 14.4462 2.05467 14.5007C2.1105 14.5551 2.16633 14.6005 2.2313 14.6548C2.2313 14.6548 2.24072 14.664 2.24986 14.664C2.30569 14.7093 2.36152 14.7546 2.4172 14.791C2.48231 14.8363 2.54742 14.8727 2.62181 14.909C2.68692 14.9453 2.76131 14.9816 2.83556 15.0088C2.89139 15.036 2.9565 15.0541 3.02161 15.0724C3.03089 15.0814 3.04017 15.0814 3.05873 15.0905C3.096 15.0995 3.14241 15.1086 3.17967 15.1177C3.15169 15.6077 3.14241 16.0705 3.2168 16.2338C3.30047 16.4153 3.70955 15.8619 4.11863 15.2266C4.06294 15.8527 4.02581 16.5877 4.11863 16.8055C4.22086 17.0324 4.77872 16.3245 5.26219 15.5441C11.8538 14.056 17.8689 18.5024 18.5012 24.7818C18.3802 23.8018 17.1439 23.2573 16.5767 23.3935C16.2977 24.0649 15.8237 24.927 15.0614 25.4623C15.1263 24.8634 15.0985 24.2464 14.9683 23.6475C14.7638 24.4823 14.364 25.2627 13.8154 25.9342C12.9323 25.9977 12.0492 25.5803 11.5841 24.9542C11.547 24.927 11.5377 24.8725 11.5099 24.8361C11.4819 24.7727 11.454 24.7092 11.4353 24.6456C11.4083 24.5848 11.3895 24.5207 11.3797 24.4551C11.3704 24.3916 11.3704 24.328 11.3704 24.2554V24.1194C11.3797 24.0558 11.3982 23.9923 11.4168 23.9287C11.4353 23.8653 11.454 23.8018 11.4819 23.7382C11.5192 23.6747 11.547 23.6111 11.5934 23.5477C11.7515 23.1121 11.7515 22.7582 11.4633 22.5495C11.4075 22.5139 11.3484 22.4836 11.2867 22.4589C11.2494 22.4497 11.203 22.4314 11.1658 22.4225C11.1379 22.4133 11.1194 22.4043 11.0914 22.3952C11.0264 22.3771 10.9613 22.359 10.8962 22.3499C10.8327 22.332 10.767 22.3228 10.701 22.3226C10.6359 22.3135 10.5615 22.3045 10.4964 22.3045C10.45 22.3045 10.4036 22.3135 10.3569 22.3135C10.2826 22.3135 10.2175 22.3227 10.1524 22.3408C10.0873 22.3499 10.0222 22.359 9.95723 22.3771C9.89212 22.3952 9.82702 22.4134 9.76191 22.4406C9.69694 22.4678 9.64097 22.4951 9.576 22.5223C9.52017 22.5495 9.46448 22.5858 9.39938 22.613C7.23319 23.9924 8.52539 27.2227 10.0036 28.1574C9.44578 28.2572 8.87864 28.3753 8.72072 28.4932L8.70216 28.5113C9.10181 28.7474 9.52017 28.9469 9.95723 29.1193C10.5522 29.3098 11.1845 29.4822 11.4633 29.5548V29.5639C12.2336 29.718 13.0212 29.773 13.8061 29.7272C17.9248 29.4458 21.2996 26.3879 21.9132 22.359C21.9317 22.4406 21.9504 22.5132 21.969 22.5949C21.9968 22.7582 22.0341 22.9306 22.0527 23.103V23.1122C22.0712 23.1939 22.0805 23.2755 22.0899 23.3482V23.3844C22.0992 23.4661 22.1085 23.5477 22.1085 23.6203C22.1178 23.7201 22.1271 23.8199 22.1271 23.9198V24.0649C22.1271 24.1103 22.1363 24.1648 22.1363 24.2101C22.1363 24.2646 22.1271 24.3191 22.1271 24.3734V24.5005C22.1271 24.5641 22.1178 24.6186 22.1178 24.682C22.1178 24.7184 22.1178 24.7546 22.1084 24.8C22.1084 24.8635 22.0991 24.927 22.0991 24.9996C22.0898 25.0268 22.0898 25.0541 22.0898 25.0813C22.0805 25.1539 22.0712 25.2174 22.0618 25.2899C22.0618 25.3172 22.0618 25.3444 22.0525 25.3717C22.0432 25.4623 22.0247 25.5441 22.0154 25.6348V25.6529C21.9968 25.7346 21.9781 25.8255 21.9596 25.9071V25.9343L21.9037 26.1793C21.9037 26.1884 21.8945 26.2065 21.8945 26.2155C21.8759 26.2972 21.8573 26.3789 21.8294 26.4607V26.4879C21.8015 26.5786 21.7737 26.6603 21.7551 26.7419C21.7457 26.751 21.7457 26.76 21.7457 26.76L21.662 27.0322C21.6249 27.1231 21.597 27.2047 21.5598 27.2955C21.5227 27.3861 21.4947 27.4769 21.4575 27.5586C21.4203 27.6493 21.383 27.731 21.346 27.8217H21.3366C21.2995 27.9034 21.2622 27.9941 21.2157 28.0758C21.2081 28.0976 21.1988 28.1189 21.1878 28.1393C21.1785 28.1485 21.1785 28.1574 21.1693 28.1666C20.565 29.3553 19.6725 30.3988 18.5569 31.2155C18.4823 31.2608 18.4081 31.3154 18.3337 31.3697C18.3151 31.3879 18.2873 31.3971 18.2686 31.415C18.2035 31.4605 18.1385 31.5059 18.0641 31.5512L18.092 31.6057H18.1012L18.4918 31.5512H18.501C18.7429 31.515 18.9845 31.4695 19.2262 31.4242C19.2914 31.4152 19.3657 31.3971 19.4307 31.3789C19.4773 31.3697 19.5144 31.3607 19.5609 31.3516C19.626 31.3426 19.6912 31.3245 19.7561 31.3153C19.812 31.2971 19.8678 31.2881 19.9235 31.27C20.8533 31.0521 21.7551 30.7526 22.6197 30.3988C21.1414 32.3679 19.1611 33.9559 16.8462 34.9994C17.9153 34.9268 18.9845 34.7544 20.0166 34.4642C23.7632 33.3842 26.9149 30.9252 28.8022 27.6131C28.4191 29.7141 27.5651 31.7065 26.3012 33.4478C27.2022 32.8677 28.0347 32.1921 28.7835 31.4333C30.8662 29.31 32.2328 26.6148 32.6977 23.7201C33.0148 25.1562 33.1057 26.6312 32.9673 28.094C39.6797 18.9561 33.5251 9.48267 30.9499 6.98724C30.9405 6.96912 30.9313 6.96006 30.9313 6.94194C30.9219 6.951 30.9219 6.951 30.9219 6.96006C30.9219 6.95086 30.9219 6.95086 30.9126 6.94194C30.9126 7.05078 30.9033 7.15963 30.894 7.26861C30.8662 7.47723 30.8382 7.67694 30.8011 7.87665C30.7547 8.07622 30.6989 8.27578 30.643 8.47549C30.5768 8.67192 30.5024 8.86561 30.4199 9.05608C30.3344 9.24416 30.2414 9.42886 30.141 9.60976C30.0388 9.78216 29.9272 9.96361 29.8063 10.1269C29.6868 10.2957 29.5596 10.4592 29.4252 10.6169C29.2856 10.7803 29.1369 10.9255 28.9882 11.0707C28.9006 11.1489 28.8107 11.2245 28.7186 11.2974C28.644 11.361 28.5791 11.4155 28.5047 11.479C28.3373 11.606 28.17 11.724 27.9841 11.8329C27.8075 11.9417 27.6214 12.0507 27.4357 12.1414C27.2402 12.2322 27.045 12.3138 26.8498 12.3955C26.6517 12.4685 26.45 12.5321 26.2455 12.586C26.04 12.64 25.8321 12.6854 25.6226 12.7222C25.4088 12.7585 25.1951 12.7766 24.9905 12.7948C24.8417 12.8038 24.6929 12.8129 24.5441 12.8129C24.3304 12.8129 24.1165 12.7948 23.912 12.7766C23.6981 12.7584 23.4842 12.7312 23.2798 12.6858C23.066 12.6495 22.8614 12.5952 22.6568 12.5316H22.6475C22.8521 12.5134 23.0567 12.4953 23.2612 12.4589C23.4709 12.4232 23.6788 12.3778 23.8842 12.3229C24.0886 12.269 24.2902 12.2054 24.4883 12.1324C24.6929 12.0596 24.8881 11.969 25.0741 11.8782C25.2693 11.7876 25.446 11.6877 25.6319 11.5788C25.8085 11.4608 25.9852 11.3427 26.1526 11.2158C26.3191 11.0894 26.4775 10.953 26.6266 10.8075C26.7847 10.6713 26.9242 10.5172 27.0637 10.3627C27.1996 10.2039 27.3298 10.0404 27.4541 9.87274C27.4726 9.84557 27.4913 9.80933 27.5099 9.78216C27.6029 9.63694 27.6958 9.49173 27.7795 9.34651C27.8818 9.16658 27.9749 8.98184 28.0585 8.79296C28.1425 8.60309 28.2169 8.40933 28.2815 8.21237C28.3466 8.02159 28.3932 7.82202 28.4396 7.62245C28.4768 7.41382 28.5141 7.21412 28.5325 7.01441C28.5511 6.80578 28.5698 6.59716 28.5698 6.39745C28.5698 6.25224 28.5605 6.10702 28.5512 5.9618C28.5327 5.75318 28.5048 5.55347 28.4767 5.35376C28.4402 5.1491 28.3937 4.94624 28.3375 4.74586C28.2722 4.55535 28.2073 4.35565 28.1329 4.16514C28.0583 3.97463 27.9655 3.78398 27.8726 3.60253C27.7702 3.42108 27.668 3.23949 27.5565 3.06724C27.4377 2.89715 27.3137 2.73067 27.1845 2.56804C27.0445 2.41152 26.902 2.25722 26.7569 2.10522C26.6785 2.02738 26.5979 1.95177 26.5151 1.87847C26.0986 1.56273 25.6674 1.26594 25.2228 0.989059C25.1627 0.955257 25.1006 0.925006 25.0369 0.898471C24.7302 0.707823 24.442 0.608039 24.1537 0.517314L24.1535 0.517176Z" fill="#E0234E"/>
</g>
<defs>
<clipPath id="clip0_516_102">
<rect width="36" height="35" fill="white"/>
</clipPath>
</defs>
</svg>
