<svg width="35" height="35" viewBox="0 0 35 35" fill="none" xmlns="http://www.w3.org/2000/svg">
<g clip-path="url(#clip0_516_100)">
<path d="M10.5 10.5L11.445 9.81633C11.3004 9.61667 11.0964 9.46792 10.862 9.39143C10.6277 9.31494 10.3752 9.31463 10.1406 9.39056C9.90613 9.46648 9.70169 9.61474 9.55665 9.81405C9.41162 10.0134 9.33344 10.2535 9.33333 10.5H10.5ZM17.5 32.6667C13.4775 32.6667 9.61985 31.0688 6.77555 28.2245C3.93125 25.3802 2.33333 21.5224 2.33333 17.5H0C0 22.1413 1.84374 26.5925 5.12563 29.8744C8.40752 33.1563 12.8587 35 17.5 35V32.6667ZM32.6667 17.5C32.6667 19.4917 32.2744 21.4639 31.5122 23.304C30.75 25.1441 29.6328 26.8161 28.2245 28.2245C26.8161 29.6328 25.1441 30.75 23.304 31.5122C21.4639 32.2744 19.4917 32.6667 17.5 32.6667V35C22.1413 35 26.5925 33.1563 29.8744 29.8744C33.1563 26.5925 35 22.1413 35 17.5H32.6667ZM17.5 2.33333C19.4917 2.33333 21.4639 2.72563 23.304 3.48783C25.1441 4.25002 26.8161 5.36719 28.2245 6.77555C29.6328 8.1839 30.75 9.85586 31.5122 11.696C32.2744 13.5361 32.6667 15.5083 32.6667 17.5H35C35 12.8587 33.1563 8.40752 29.8744 5.12563C26.5925 1.84374 22.1413 0 17.5 0V2.33333ZM17.5 0C12.8587 0 8.40752 1.84374 5.12563 5.12563C1.84374 8.40752 0 12.8587 0 17.5H2.33333C2.33333 13.4775 3.93125 9.61985 6.77555 6.77555C9.61985 3.93125 13.4775 2.33333 17.5 2.33333V0ZM11.6667 28V10.5H9.33333V28H11.6667ZM9.555 11.1837L24.7217 32.1837L26.6117 30.8163L11.445 9.81633L9.555 11.1837ZM23.3333 9.33333V23.3333H25.6667V9.33333H23.3333Z" fill="#F2F2F2"/>
</g>
<defs>
<clipPath id="clip0_516_100">
<rect width="35" height="35" fill="white"/>
</clipPath>
</defs>
</svg>
