<svg width="61" height="38" viewBox="0 0 61 38" fill="none" xmlns="http://www.w3.org/2000/svg">
<g clip-path="url(#clip0_516_32)">
<path d="M30.1556 37.8904C29.9491 37.8904 29.7563 37.8345 29.5772 37.7366L27.7459 36.6316C27.4705 36.4777 27.6082 36.4218 27.6909 36.3938C28.0626 36.268 28.1315 36.2399 28.517 36.0163C28.5584 35.9882 28.6135 36.0022 28.6547 36.0302L30.0593 36.8834C30.1143 36.9113 30.1832 36.9113 30.2244 36.8834L35.7186 33.6524C35.7736 33.6244 35.8013 33.5684 35.8013 33.4986V27.0507C35.8013 26.9806 35.7736 26.9248 35.7186 26.8968L30.2244 23.6798C30.1694 23.6517 30.1005 23.6517 30.0593 23.6798L24.5651 26.8968C24.5101 26.9247 24.4824 26.9947 24.4824 27.0506V33.4985C24.4824 33.5545 24.5101 33.6243 24.5651 33.6524L26.066 34.5335C26.8785 34.9531 27.3879 34.4636 27.3879 33.9741V27.61C27.3879 27.5262 27.4568 27.4422 27.5532 27.4422H28.2554C28.3381 27.4422 28.4206 27.5121 28.4206 27.61V33.9741C28.4206 35.079 27.8285 35.7224 26.7958 35.7224C26.4791 35.7224 26.2313 35.7224 25.529 35.3727L24.0832 34.5335C23.7252 34.3238 23.5049 33.9321 23.5049 33.5125V27.0646C23.5049 26.645 23.7252 26.2533 24.0832 26.0436L29.5772 22.8126C29.9216 22.6168 30.3898 22.6168 30.734 22.8126L36.228 26.0436C36.586 26.2533 36.8065 26.645 36.8065 27.0646V33.5125C36.8065 33.9321 36.586 34.3238 36.228 34.5335L30.734 37.7645C30.5549 37.8485 30.3483 37.8904 30.1556 37.8904ZM31.8493 33.4566C29.4396 33.4566 28.9439 32.3376 28.9439 31.3866C28.9439 31.3026 29.0128 31.2187 29.1091 31.2187H29.8252C29.9077 31.2187 29.9766 31.2746 29.9766 31.3586C30.0868 32.0998 30.4035 32.4635 31.8631 32.4635C33.0197 32.4635 33.5156 32.1978 33.5156 31.5683C33.5156 31.2047 33.3777 30.939 31.5739 30.7571C30.073 30.6032 29.1367 30.2676 29.1367 29.0508C29.1367 27.9178 30.0731 27.2464 31.6428 27.2464C33.4052 27.2464 34.2728 27.8619 34.383 29.2045C34.383 29.2466 34.3692 29.2885 34.3417 29.3304C34.314 29.3584 34.2728 29.3864 34.2315 29.3864H33.5154C33.4466 29.3864 33.3777 29.3304 33.364 29.2605C33.1988 28.4913 32.7719 28.2395 31.6428 28.2395C30.376 28.2395 30.2244 28.6871 30.2244 29.0227C30.2244 29.4283 30.4035 29.5542 32.1109 29.778C33.8046 30.0019 34.6033 30.3235 34.6033 31.5263C34.5895 32.7572 33.5981 33.4566 31.8493 33.4566Z" fill="#539E43"/>
<path d="M13.1086 12.6722C13.1086 12.4204 12.9709 12.1825 12.7506 12.0566L6.91224 8.64391C6.81574 8.58788 6.70565 8.55992 6.59557 8.54589H6.5404C6.43032 8.54589 6.32011 8.58788 6.22373 8.64391L0.385361 12.0566C0.164951 12.1825 0.0273438 12.4203 0.0273438 12.6722L0.0411641 21.8475C0.0411641 21.9733 0.110027 22.0992 0.220113 22.1552C0.330318 22.2252 0.467926 22.2252 0.56443 22.1552L4.0344 20.1411C4.25469 20.0152 4.39242 19.7774 4.39242 19.5257V15.2317C4.39242 14.98 4.53003 14.7422 4.75044 14.6163L6.22373 13.7491C6.33393 13.6792 6.45784 13.6511 6.58175 13.6511C6.70565 13.6511 6.82956 13.6792 6.92606 13.7491L8.39936 14.6163C8.61977 14.7422 8.75737 14.9799 8.75737 15.2317V19.5257C8.75737 19.7774 8.8951 20.0152 9.11539 20.1411L12.5854 22.1552C12.639 22.1895 12.701 22.2077 12.7644 22.2077C12.8277 22.2077 12.8898 22.1895 12.9434 22.1552C13.0536 22.0992 13.1224 21.9733 13.1224 21.8475L13.1086 12.6722ZM41.1714 0.0419934C41.0613 -0.0140385 40.9236 -0.0140385 40.8271 0.0419934C40.717 0.111942 40.6481 0.223764 40.6481 0.349624V9.44118C40.6481 9.52505 40.6069 9.60892 40.5242 9.66495C40.4416 9.70682 40.3589 9.70682 40.2764 9.66495L38.8168 8.81176C38.7098 8.74988 38.5888 8.71733 38.4656 8.71733C38.3425 8.71733 38.2215 8.74988 38.1145 8.81176L32.2761 12.2385C32.0558 12.3644 31.9181 12.6022 31.9181 12.8539V19.6934C31.9181 19.9452 32.0558 20.1831 32.2761 20.3089L38.1145 23.7357C38.2215 23.7976 38.3425 23.8302 38.4656 23.8302C38.5888 23.8302 38.7098 23.7976 38.8168 23.7357L44.6552 20.3089C44.8755 20.1831 45.0132 19.9453 45.0132 19.6934V2.64354C45.0132 2.37778 44.8755 2.1401 44.6552 2.01412L41.1714 0.0419934ZM40.6344 17.4416C40.6344 17.5116 40.6069 17.5675 40.5517 17.5955L38.5552 18.7703C38.5273 18.7841 38.4967 18.7913 38.4656 18.7913C38.4346 18.7913 38.404 18.7841 38.3761 18.7703L36.3795 17.5955C36.3244 17.5675 36.2969 17.4975 36.2969 17.4416V15.0918C36.2969 15.0219 36.3244 14.9659 36.3795 14.938L38.3761 13.763C38.404 13.7492 38.4346 13.742 38.4656 13.742C38.4967 13.742 38.5273 13.7492 38.5552 13.763L40.5517 14.938C40.6069 14.9658 40.6344 15.0359 40.6344 15.0918V17.4416ZM60.6005 15.0359C60.8209 14.91 60.9448 14.6722 60.9448 14.4204V12.756C60.9448 12.5043 60.8071 12.2665 60.6005 12.1406L54.8034 8.7279C54.6964 8.66601 54.5754 8.63347 54.4523 8.63347C54.3291 8.63347 54.2081 8.66601 54.1011 8.7279L48.2627 12.1546C48.0423 12.2804 47.9047 12.5182 47.9047 12.7699V19.6096C47.9047 19.8613 48.0424 20.0991 48.2627 20.225L54.0598 23.5818C54.2802 23.7076 54.5418 23.7076 54.7484 23.5818L58.2596 21.5959C58.3698 21.5398 58.4387 21.414 58.4387 21.2881C58.4387 21.1622 58.3698 21.0364 58.2596 20.9804L52.3937 17.5536C52.2835 17.4836 52.2146 17.3718 52.2146 17.2459V15.106C52.2146 14.9801 52.2835 14.8542 52.3937 14.7982L54.225 13.7352C54.2786 13.7009 54.3407 13.6827 54.404 13.6827C54.4674 13.6827 54.5294 13.7009 54.583 13.7352L56.4145 14.7982C56.5247 14.8682 56.5934 14.98 56.5934 15.106V16.7844C56.5934 16.9102 56.6623 17.0361 56.7725 17.092C56.8261 17.1263 56.8881 17.1445 56.9515 17.1445C57.0148 17.1445 57.0769 17.1263 57.1305 17.092L60.6005 15.0359Z" fill="#F7F7F7"/>
<path d="M54.3628 14.7141C54.3833 14.7004 54.4072 14.6931 54.4317 14.6931C54.4562 14.6931 54.4801 14.7004 54.5006 14.7141L55.616 15.3715C55.6572 15.3996 55.6847 15.4414 55.6847 15.4973V16.8122C55.6847 16.8681 55.6573 16.9101 55.616 16.9381L54.5006 17.5954C54.4801 17.6091 54.4562 17.6164 54.4317 17.6164C54.4072 17.6164 54.3833 17.6091 54.3628 17.5954L53.2476 16.9381C53.2062 16.9101 53.1787 16.8681 53.1787 16.8122V15.4975C53.1787 15.4414 53.2061 15.3994 53.2476 15.3716L54.3628 14.7141Z" fill="#539E43"/>
<path d="M22.8714 8.75587C22.7644 8.694 22.6434 8.66147 22.5203 8.66147C22.3972 8.66147 22.2762 8.694 22.1692 8.75587L16.3721 12.1544C16.1517 12.2803 16.0278 12.5181 16.0278 12.7698V19.5815C16.0278 19.8332 16.1656 20.071 16.3721 20.1969L22.1692 23.5957C22.2762 23.6576 22.3972 23.6901 22.5203 23.6901C22.6434 23.6901 22.7644 23.6576 22.8714 23.5957L28.6685 20.1969C28.8888 20.071 29.0128 19.8332 29.0128 19.5815V12.7699C29.0128 12.5182 28.875 12.2804 28.6685 12.1546L22.8714 8.75587Z" fill="url(#paint0_linear_516_32)"/>
</g>
<defs>
<linearGradient id="paint0_linear_516_32" x1="901.45" y1="271.467" x2="251.797" y2="1276.42" gradientUnits="userSpaceOnUse">
<stop stop-color="#41873F"/>
<stop offset="0.3288" stop-color="#418B3D"/>
<stop offset="0.6352" stop-color="#419637"/>
<stop offset="0.9319" stop-color="#3FA92D"/>
<stop offset="1" stop-color="#3FAE2A"/>
</linearGradient>
<clipPath id="clip0_516_32">
<rect width="61" height="38" fill="white"/>
</clipPath>
</defs>
</svg>
