<svg width="36" height="35" viewBox="0 0 36 35" fill="none" xmlns="http://www.w3.org/2000/svg">
<path d="M26.3839 25.1869C26.6047 23.4005 26.5386 23.1383 27.9071 23.4279L28.2545 23.4574C29.3069 23.5039 30.6836 23.2928 31.4925 22.9275C33.2337 22.1419 34.2659 20.8307 32.5495 21.175C28.6333 21.9606 28.3642 20.6713 28.3642 20.6713C32.4994 14.7063 34.228 7.13399 32.7356 5.28035C28.666 0.224767 21.6215 2.61543 21.5036 2.67723L21.466 2.68406C20.6922 2.52793 19.8263 2.43469 18.8534 2.41938C17.0813 2.39094 15.7366 2.87109 14.7165 3.62305C14.7165 3.62305 2.14943 -1.41066 2.73414 9.9534C2.85846 12.3709 6.29814 28.2458 10.401 23.4508C11.9006 21.6975 13.3496 20.215 13.3496 20.215C14.0691 20.6795 14.9308 20.9169 15.8342 20.8316L15.9042 20.7736C15.8823 20.9913 15.8919 21.2043 15.9321 21.4564C14.8754 22.6045 15.1859 22.8061 13.0729 23.2288C10.9348 23.657 12.1909 24.4196 13.0107 24.6189C14.005 24.8607 16.3047 25.203 17.8589 23.0882L17.7971 23.3294C18.2116 23.6521 18.1838 25.6473 18.2423 27.0728C18.3011 28.4985 18.3992 29.8288 18.6982 30.6132C18.9971 31.3975 19.3498 33.4176 22.1269 32.839C24.4478 32.3567 26.2222 31.6608 26.3839 25.1869Z" fill="black"/>
<path d="M21.2228 34.2497C19.9946 34.2497 19.1947 33.7879 18.709 33.3419C17.9758 32.6692 17.685 31.8027 17.5111 31.2851L17.436 31.0691C17.0862 30.1509 16.9675 28.8288 16.8972 27.1264C16.8865 26.8707 16.8792 26.6074 16.871 26.3282C16.8651 26.1239 16.8578 25.8677 16.8471 25.5998C16.4046 25.8049 15.9349 25.9492 15.4515 26.0285C14.5856 26.1723 13.6546 26.1259 12.684 25.8899C11.9992 25.7234 11.2876 25.3783 10.8821 24.8454C9.69998 25.8519 8.57245 25.7154 7.9582 25.5161C6.87455 25.1647 5.9048 24.1773 4.99326 22.4982C4.34386 21.3019 3.71583 19.7433 3.12633 17.8653C2.09976 14.595 1.44755 11.1505 1.38961 10.0196C1.20736 6.47992 2.18751 3.94844 4.30223 2.49621C7.63814 0.20535 12.6925 1.55258 14.5352 2.16426C15.7733 1.43883 17.2299 1.08582 18.8758 1.11125C19.7597 1.12519 20.6015 1.20066 21.3834 1.33629C22.199 1.08691 23.81 0.728983 25.6542 0.751405C29.052 0.79078 31.8675 2.07812 33.7961 4.47426C35.1725 6.18379 34.4919 9.77375 33.964 11.7616C33.2209 14.5578 31.919 17.5317 30.3198 20.1206C30.7541 20.1236 31.3832 20.073 32.2776 19.8934C34.0422 19.5393 34.5583 20.4591 34.6983 20.8709C35.2594 22.523 32.8204 23.7716 32.0596 24.115C31.0848 24.555 29.4955 24.8229 28.1939 24.765L28.137 24.7614L27.795 24.7321L27.7613 25.0094L27.7287 25.2804C27.6412 28.5614 27.1591 30.6392 26.1672 32.0121C25.1274 33.4515 23.6823 33.8548 22.4094 34.1201C21.9751 34.2103 21.5805 34.2497 21.2228 34.2497ZM18.6381 22.3084C19.431 22.9253 19.5004 24.086 19.5626 26.2552C19.5705 26.5259 19.5778 26.7821 19.5876 27.0214C19.6174 27.746 19.6875 29.4427 19.9608 30.1596C19.9994 30.2611 20.034 30.3639 20.0705 30.473C20.3751 31.3797 20.5278 31.8344 21.8449 31.5607C22.9505 31.3302 23.5189 31.1235 23.9639 30.5077C24.6105 29.6125 24.9721 27.8116 25.0385 25.1552L26.3837 25.1869L25.0478 25.031L25.0872 24.7067C25.2151 23.6376 25.3074 22.8654 26.0423 22.3546C26.6321 21.945 27.304 21.9846 27.8392 22.0784C27.2511 21.6464 27.0885 21.1397 27.0452 20.9319L26.933 20.3946L27.2483 19.9399C29.0643 17.3204 30.5617 14.1009 31.3571 11.1068C32.1744 8.03031 31.9252 6.39652 31.676 6.08754C28.3772 1.98953 22.6569 3.68156 22.0595 3.87351L21.9585 3.92656L21.4523 4.01816L21.193 3.96594C20.478 3.82156 19.6838 3.74172 18.8325 3.72832C17.4948 3.70644 16.4157 4.01379 15.5309 4.66648L14.9169 5.11902L14.2045 4.83383C12.6824 4.22871 8.21161 3.01219 5.85248 4.63668C4.54298 5.53848 3.94645 7.30543 4.0792 9.88859C4.12308 10.7414 4.71905 13.9699 5.7023 17.1011C7.06101 21.4282 8.2957 22.8657 8.81123 23.0327C8.90123 23.0623 9.13467 22.8859 9.36698 22.6146C10.3356 21.4857 11.3386 20.3851 12.3747 19.3143L13.1537 18.5172L14.0956 19.1256C14.4753 19.3709 14.8941 19.51 15.3241 19.5363L17.5705 17.6736L17.2451 20.9024C17.2378 20.9748 17.2341 21.0736 17.2634 21.2568L17.3612 21.8687L16.9365 22.3303L16.8876 22.3839L18.1217 22.9376L18.6381 22.3084Z" fill="black"/>
<path d="M32.5493 21.175C28.6329 21.9606 28.3637 20.6713 28.3637 20.6713C32.499 14.706 34.2275 7.13344 32.7358 5.28035C28.6661 0.225041 21.6211 2.6157 21.5035 2.67778L21.4655 2.68434C20.6918 2.5282 19.8258 2.43524 18.8524 2.41992C17.0803 2.39176 15.7362 2.87164 14.7161 3.6236C14.7161 3.6236 2.14871 -1.40984 2.73315 9.95395C2.85746 12.3717 6.29715 28.2466 10.4 23.4516C11.8996 21.6984 13.3484 20.2158 13.3484 20.2158C14.0681 20.6804 14.9296 20.9177 15.8326 20.8324L15.903 20.7744C15.881 20.9921 15.8911 21.2051 15.9311 21.4572C14.8741 22.6054 15.1846 22.8069 13.0716 23.2296C10.9336 23.6578 12.1896 24.4204 13.0097 24.6198C14.0037 24.8615 16.3037 25.2038 17.8576 23.0891L17.7955 23.3302C18.2098 23.6529 18.5006 25.428 18.4519 27.0372C18.403 28.6464 18.3704 29.7514 18.6969 30.6143C19.0231 31.4773 19.3483 33.4187 22.1259 32.8401C24.4468 32.3567 25.6494 31.1035 25.817 29.0134C25.9357 27.5272 26.2043 27.7471 26.2215 26.4184L26.4372 25.7895C26.6858 23.7751 26.4766 23.1254 27.9067 23.4276L28.2541 23.4571C29.3065 23.5036 30.6838 23.2925 31.4924 22.9272C33.2333 22.1422 34.2658 20.8307 32.5493 21.175Z" fill="#336791"/>
<path d="M21.3631 33.4433C19.0479 33.4433 18.3144 31.6608 18.0143 30.9318C17.575 29.8635 17.4802 25.7176 17.578 22.3177C17.5795 22.2604 17.5926 22.2039 17.6166 22.1515C17.6406 22.0991 17.6751 22.0518 17.7179 22.0124C17.7608 21.973 17.8113 21.9423 17.8664 21.9219C17.9216 21.9016 17.9803 21.892 18.0393 21.8939C18.0982 21.8954 18.1562 21.9083 18.21 21.9316C18.2638 21.955 18.3123 21.9885 18.3528 22.0301C18.3933 22.0717 18.425 22.1207 18.446 22.1742C18.467 22.2277 18.4769 22.2848 18.4752 22.342C18.3625 26.2634 18.5225 29.817 18.8476 30.6078C19.355 31.8407 20.1245 32.9191 22.3 32.4661C24.3652 32.0354 25.1386 31.2741 25.4831 29.3325C25.7475 27.8425 26.2704 23.6037 26.3348 22.7672C26.3391 22.7101 26.3549 22.6543 26.3815 22.6031C26.408 22.5519 26.4446 22.5063 26.4893 22.4689C26.534 22.4315 26.5858 22.4031 26.6418 22.3852C26.6978 22.3673 26.7569 22.3604 26.8157 22.3647C26.9343 22.3735 27.0446 22.4276 27.1222 22.5153C27.1998 22.6029 27.2385 22.717 27.2297 22.8323C27.1625 23.7032 26.6422 27.9338 26.3677 29.4809C25.961 31.7743 24.9094 32.8144 22.4881 33.3192C22.0766 33.4048 21.7029 33.443 21.3631 33.4433ZM8.80923 24.7368C8.60686 24.7361 8.40592 24.7038 8.21411 24.6411C6.71027 24.1533 5.27786 21.7722 3.95655 17.5632C2.9508 14.3593 2.31348 11.0152 2.25752 9.92824C2.09186 6.70605 2.94517 4.42641 4.79439 3.15301C8.45261 0.633008 14.6066 3.03269 14.8668 3.13605C14.977 3.17982 15.0648 3.26436 15.1109 3.37107C15.157 3.47778 15.1576 3.59793 15.1126 3.70508C15.0676 3.81223 14.9806 3.8976 14.8709 3.94242C14.7611 3.98724 14.6375 3.98783 14.5273 3.94406C14.468 3.92055 8.5668 1.62203 5.31133 3.86613C3.73014 4.95605 3.00423 6.98113 3.15358 9.88477C3.20055 10.8005 3.79595 14.0643 4.81464 17.3083C5.9942 21.0659 7.33661 23.4369 8.49789 23.8134C8.68014 23.8725 9.23477 24.0521 10.0276 23.1252C10.9522 22.0456 11.9115 20.9945 12.904 19.9735C12.987 19.893 13.0992 19.8473 13.2165 19.8461C13.3338 19.845 13.4468 19.8885 13.5315 19.9674C13.6162 20.0463 13.6658 20.1543 13.6696 20.2683C13.6734 20.3823 13.6312 20.4932 13.552 20.5773C13.5385 20.5909 12.1887 21.9628 10.7178 23.6832C10.0211 24.4978 9.35345 24.7368 8.80923 24.7368ZM28.3361 21.0604C28.2548 21.0603 28.175 21.0387 28.1053 20.9979C28.0356 20.9571 27.9786 20.8987 27.9404 20.8289C27.9022 20.759 27.8843 20.6804 27.8885 20.6014C27.8927 20.5224 27.9189 20.446 27.9643 20.3804C32.1445 14.3497 33.6118 7.06289 32.3552 5.50156C30.7735 3.53664 28.54 2.51043 25.7166 2.45109C23.626 2.40734 21.9644 2.92633 21.6927 3.01684L21.6244 3.04391C21.3513 3.1273 21.1418 2.98184 21.0627 2.81176C21.0177 2.71431 21.0108 2.60421 21.0435 2.5022C21.0762 2.4002 21.1462 2.31336 21.2402 2.25805C21.2531 2.25066 21.2942 2.23371 21.3609 2.20992C21.8224 2.04559 23.5093 1.5534 25.5987 1.57664C28.7229 1.60891 31.3036 2.78004 33.0614 4.96398C33.8931 5.9973 33.895 8.37785 33.0668 11.4956C32.2225 14.6743 30.6337 18.0904 28.7082 20.8682C28.6222 20.9932 28.4804 21.0604 28.3361 21.0604ZM28.5499 23.8522C27.8361 23.8522 27.1962 23.7543 26.8132 23.5312C26.4194 23.3018 26.3443 22.9901 26.3345 22.8246C26.227 20.9899 27.2682 20.6705 27.7992 20.5248C27.7253 20.4159 27.6201 20.288 27.5112 20.1559C27.2016 19.7796 26.7775 19.2645 26.4506 18.4939C26.3995 18.3736 26.2391 18.0939 26.0535 17.7699C25.0469 16.015 22.9525 12.3632 24.298 10.4932C24.9206 9.62773 26.1607 9.28703 27.9877 9.47707C27.4502 7.88512 24.8908 2.90527 18.8178 2.80848C16.9914 2.77894 15.4934 3.325 14.3679 4.42996C11.8479 6.9043 11.939 11.3813 11.9404 11.4261C11.9419 11.4834 11.9319 11.5404 11.9108 11.5939C11.8897 11.6474 11.8579 11.6963 11.8174 11.7379C11.7768 11.7795 11.7282 11.8128 11.6744 11.8362C11.6205 11.8595 11.5625 11.8722 11.5036 11.8737C11.4447 11.8753 11.3861 11.8655 11.331 11.8449C11.276 11.8244 11.2257 11.7936 11.1829 11.7541C11.1402 11.7147 11.1058 11.6675 11.0819 11.6151C11.0579 11.5628 11.0448 11.5064 11.0432 11.4491C11.0376 11.2503 10.9436 6.55211 13.7303 3.81582C15.0344 2.53531 16.7512 1.90312 18.8327 1.93621C22.7179 1.99828 25.2188 3.91863 26.6323 5.51852C28.1733 7.26223 28.9287 9.18559 28.9909 9.82762C29.0373 10.305 28.6849 10.4005 28.6137 10.4147L28.4517 10.4182C26.6588 10.1391 25.5085 10.3329 25.0329 10.9936C24.0094 12.4157 25.9908 15.87 26.8368 17.3452C27.0528 17.7215 27.2086 17.9936 27.28 18.1614C27.5579 18.8166 27.9205 19.2568 28.2115 19.6107C28.4678 19.9218 28.6897 20.1917 28.769 20.5084C28.8058 20.5713 29.3287 21.3232 32.4311 20.7006C33.2088 20.5447 33.6751 20.6779 33.8177 21.0971C34.0981 21.9215 32.5248 22.8832 31.6538 23.2764C30.8733 23.6291 29.6276 23.8522 28.5499 23.8522ZM27.2291 22.7527C27.3276 22.8493 27.82 23.0158 28.8399 22.9731C29.7466 22.9354 30.7029 22.7437 31.2766 22.4848C32.0104 22.1534 32.5003 21.7829 32.754 21.5299L32.6134 21.5551C30.6297 21.9532 29.2266 21.9002 28.443 21.3973C28.3904 21.3635 28.3397 21.3269 28.2911 21.2877C28.2062 21.3202 28.1277 21.3415 28.0718 21.3568C27.6274 21.478 27.1678 21.6035 27.2291 22.7527ZM14.4148 25.1904C13.9221 25.1904 13.4035 25.1251 12.8739 24.9963C12.3251 24.8629 11.4001 24.4612 11.4142 23.8014C11.4302 23.0612 12.5375 22.8391 12.9543 22.7557C14.4601 22.4541 14.5583 22.3333 15.0288 21.7522C15.166 21.583 15.3368 21.3721 15.5696 21.1195C15.9153 20.7432 16.293 20.5527 16.6924 20.5527C16.9705 20.5527 17.1986 20.6443 17.3494 20.7052C17.8298 20.8988 18.2305 21.367 18.3954 21.9267C18.5441 22.4317 18.473 22.9179 18.1957 23.2955C17.2853 24.535 15.9777 25.1904 14.4148 25.1904ZM12.3836 23.8388C12.5189 23.9405 12.79 24.0764 13.0918 24.1497C13.5505 24.2613 13.9955 24.3179 14.4151 24.3179C15.6937 24.3179 16.7202 23.8033 17.4658 22.7883C17.6214 22.5766 17.5747 22.3079 17.533 22.1665C17.4459 21.8704 17.2293 21.601 17.0063 21.5111C16.8853 21.4624 16.7849 21.4252 16.6927 21.4252C16.6432 21.4252 16.4924 21.4252 16.2387 21.7011C16.0637 21.8925 15.8954 22.0897 15.7342 22.2923C15.148 23.0158 14.8795 23.2613 13.1357 23.6105C12.7102 23.6953 12.4919 23.7817 12.3836 23.8388ZM15.8343 21.8263C15.7272 21.8262 15.6236 21.7888 15.5424 21.7209C15.4612 21.653 15.4076 21.559 15.3913 21.4561C15.3802 21.3837 15.3727 21.3108 15.3688 21.2376C14.2258 21.2168 13.123 20.74 12.2858 19.8907C11.2271 18.8169 10.7454 17.3291 10.9642 15.8091C11.2018 14.1583 11.113 12.7012 11.0651 11.9183C11.0519 11.7007 11.0424 11.5434 11.0429 11.4346C11.0438 11.2965 11.0466 10.9304 12.3055 10.31C12.7532 10.0893 13.651 9.7043 14.6317 9.60559C16.2565 9.44234 17.3275 10.1459 17.6481 11.5869C18.5135 15.4774 17.7167 17.1981 17.1348 18.4548C17.0265 18.6889 16.9241 18.9098 16.8423 19.1239L16.77 19.3126C16.4626 20.1141 16.1968 20.8064 16.2784 21.3235C16.2873 21.3801 16.2847 21.4379 16.2707 21.4935C16.2567 21.5492 16.2315 21.6016 16.1967 21.6478C16.1618 21.694 16.1179 21.733 16.0675 21.7627C16.0171 21.7924 15.9612 21.8122 15.9029 21.8209L15.8343 21.8263ZM11.9432 11.5555L11.9606 11.8669C12.0101 12.6801 12.1024 14.1933 11.8526 15.9302C11.6724 17.1839 12.0661 18.4075 12.9335 19.2869C13.6189 19.982 14.5209 20.3656 15.4479 20.3656H15.467C15.5708 19.9404 15.7432 19.4914 15.9288 19.0077L16.0005 18.8202C16.093 18.5784 16.2013 18.3444 16.3161 18.0966C16.876 16.887 17.5733 15.3811 16.7703 11.7715C16.6114 11.0564 16.2258 10.6427 15.5921 10.5063C14.2905 10.2268 12.3507 11.1787 11.9432 11.5555ZM14.6516 11.3704C14.6291 11.5246 14.9422 11.9364 15.3505 11.9913C15.7581 12.0468 16.1068 11.7247 16.129 11.5705C16.1513 11.4163 15.8385 11.2462 15.4301 11.191C15.022 11.1357 14.6733 11.2161 14.6516 11.3704ZM15.4442 12.1431L15.3297 12.1354C15.0766 12.1012 14.8207 11.9462 14.6455 11.7204C14.5839 11.6411 14.4835 11.4874 14.5034 11.3501C14.5318 11.1489 14.7844 11.0283 15.1784 11.0283C15.2665 11.0283 15.3581 11.0346 15.4504 11.0471C15.6658 11.0761 15.8658 11.1366 16.0135 11.2167C16.2694 11.3556 16.2882 11.5106 16.2767 11.5907C16.2452 11.813 15.8815 12.1431 15.4442 12.1431ZM14.8004 11.3961C14.8131 11.4912 15.0555 11.8051 15.3711 11.8475L15.4445 11.8524C15.7359 11.8524 15.9535 11.6296 15.9791 11.5566C15.9521 11.5068 15.7648 11.3832 15.4096 11.3351C15.3331 11.3244 15.256 11.319 15.1787 11.3189C14.9503 11.3189 14.8291 11.369 14.8004 11.3961ZM27.0643 11.0556C27.0865 11.2098 26.7738 11.6216 26.3657 11.6769C25.9579 11.7321 25.6089 11.4103 25.5864 11.2561C25.565 11.1018 25.8777 10.9315 26.2855 10.8765C26.6934 10.821 27.0418 10.9017 27.0643 11.0556ZM26.2715 11.7556C25.8789 11.7556 25.54 11.4587 25.5121 11.2659C25.4798 11.0346 25.8715 10.8587 26.2749 10.8043C26.3637 10.7923 26.4518 10.7863 26.5364 10.7863C26.8846 10.7863 27.1152 10.8855 27.1383 11.0458C27.1532 11.1494 27.0714 11.3094 26.9305 11.4537C26.8374 11.5486 26.6419 11.713 26.3755 11.7488L26.2715 11.7556ZM26.5367 10.9318C26.4591 10.9318 26.3781 10.9375 26.296 10.9484C25.8907 11.0034 25.6488 11.1614 25.6606 11.2462C25.6741 11.3395 25.9329 11.6104 26.2718 11.6104L26.3553 11.6047C26.5766 11.5749 26.7429 11.4343 26.8222 11.3534C26.9468 11.2262 26.9963 11.1065 26.9904 11.0657C26.9825 11.0116 26.8329 10.9318 26.5367 10.9318ZM27.6519 19.9123C27.5706 19.9123 27.4908 19.8909 27.421 19.8502C27.3513 19.8096 27.2943 19.7512 27.256 19.6815C27.2178 19.6117 27.1997 19.5332 27.2039 19.4542C27.208 19.3753 27.2341 19.2989 27.2795 19.2333C28.2352 17.8456 28.0602 16.4306 27.8912 15.062C27.8189 14.4791 27.7447 13.8761 27.7638 13.2975C27.7835 12.7023 27.8614 12.2112 27.9365 11.7362C28.0256 11.1735 28.11 10.6419 28.0751 10.0108C28.072 9.95362 28.0804 9.89637 28.1 9.84234C28.1196 9.78831 28.1499 9.73856 28.1893 9.69593C28.2286 9.65329 28.2762 9.61862 28.3294 9.59387C28.3825 9.56913 28.4401 9.55481 28.499 9.55172C28.5578 9.54863 28.6167 9.55684 28.6723 9.57588C28.7279 9.59491 28.779 9.62441 28.8229 9.66267C28.8667 9.70094 28.9024 9.74722 28.9278 9.79889C28.9533 9.85055 28.968 9.90659 28.9712 9.96379C29.0111 10.6851 28.9158 11.2867 28.8235 11.8688C28.7524 12.3181 28.6787 12.7827 28.661 13.3254C28.6438 13.8379 28.711 14.382 28.7822 14.9579C28.9622 16.4131 29.1661 18.0625 28.0254 19.7187C27.9843 19.7783 27.9287 19.8272 27.8636 19.861C27.7984 19.8947 27.7257 19.9123 27.6519 19.9123Z" fill="white"/>
</svg>
