<svg width="69" height="36" viewBox="0 0 69 36" fill="none" xmlns="http://www.w3.org/2000/svg">
<g clip-path="url(#clip0_516_17)">
<path d="M34.5 35.8933C53.5538 35.8933 69 27.8583 69 17.9467C69 8.035 53.5538 0 34.5 0C15.4462 0 0 8.035 0 17.9467C0 27.8583 15.4462 35.8933 34.5 35.8933Z" fill="url(#paint0_radial_516_17)"/>
<path d="M34.5 34.56C52.8095 34.56 67.6523 27.122 67.6523 17.9467C67.6523 8.77138 52.8095 1.33333 34.5 1.33333C16.1905 1.33333 1.34766 8.77138 1.34766 17.9467C1.34766 27.122 16.1905 34.56 34.5 34.56Z" fill="#6181B6"/>
<path d="M41.2113 23.3333L42.8554 14.96C43.2328 13.0667 42.9093 11.6533 41.939 10.7733C40.9957 9.92 39.3785 9.49334 37.0066 9.49334H34.1496L34.9582 5.33334C34.9851 5.17334 34.9582 5.01334 34.8503 4.88C34.7425 4.74667 34.6078 4.69334 34.446 4.69334H30.5109C30.2414 4.69334 30.0257 4.88 29.9718 5.12L28.2199 14C28.0582 12.9867 27.6808 12.1333 27.0339 11.44C25.875 10.1333 24.0691 9.46667 21.6164 9.46667H14.0425C13.773 9.46667 13.5574 9.65334 13.5035 9.89334L9.97261 27.92C9.94566 28.08 9.97261 28.24 10.0804 28.3733C10.1882 28.5067 10.323 28.56 10.4847 28.56H14.4468C14.7164 28.56 14.932 28.3733 14.9859 28.1333L15.8484 23.7867H18.7863C20.3226 23.7867 21.6433 23.6267 22.6406 23.3067C23.6918 22.96 24.6351 22.4 25.4707 21.6267C26.1445 21.0133 26.7105 20.32 27.1418 19.5733L26.441 23.1733C26.414 23.3333 26.441 23.4933 26.5488 23.6267C26.6566 23.76 26.7914 23.8133 26.9531 23.8133H30.8882C31.1578 23.8133 31.3734 23.6267 31.4273 23.3867L33.3679 13.52H36.0632C37.2222 13.52 37.5457 13.7333 37.6535 13.84C37.7343 13.92 37.896 14.24 37.7074 15.2267L36.1441 23.2C36.1171 23.36 36.1441 23.52 36.2519 23.6533C36.3597 23.7867 36.4945 23.84 36.6562 23.84H40.6992C40.9418 23.76 41.1574 23.5733 41.2113 23.3333ZM22.991 16.4C22.7484 17.6533 22.2902 18.56 21.6164 19.0667C20.9425 19.5733 19.8375 19.84 18.382 19.84H16.63L17.8968 13.3867H20.1609C21.832 13.3867 22.5058 13.7333 22.7753 14.0267C23.1257 14.4533 23.2066 15.28 22.991 16.4ZM58.03 11.44C56.8711 10.1333 55.0652 9.46667 52.6125 9.46667H44.9847C44.7152 9.46667 44.4996 9.65334 44.4457 9.89334L40.9148 27.8933C40.8878 28.0533 40.9148 28.2133 41.0226 28.3467C41.1304 28.48 41.2652 28.5333 41.4269 28.5333H45.389C45.6585 28.5333 45.8742 28.3467 45.9281 28.1067L46.7906 23.76H49.7285C51.2648 23.76 52.5855 23.6 53.5828 23.28C54.6339 22.9333 55.5773 22.3733 56.4128 21.6C57.1136 20.96 57.7066 20.24 58.1378 19.4667C58.5691 18.6933 58.8925 17.84 59.0812 16.9067C59.5394 14.5867 59.189 12.7733 58.03 11.44ZM53.9062 16.4C53.6636 17.6533 53.2054 18.56 52.5316 19.0667C51.8578 19.5733 50.7527 19.84 49.2972 19.84H47.5453L48.8121 13.3867H51.0761C52.7472 13.3867 53.421 13.7333 53.6906 14.0267C54.0679 14.4533 54.1488 15.28 53.9062 16.4Z" fill="white"/>
<path d="M20.1609 12.8533C21.6703 12.8533 22.6676 13.12 23.1797 13.68C23.6918 14.24 23.7996 15.1733 23.5301 16.5067C23.2605 17.8933 22.7215 18.9067 21.9398 19.4933C21.1582 20.08 19.9723 20.3733 18.382 20.3733H15.9832L17.4656 12.8533H20.1609ZM10.5117 28H14.4738L15.4172 23.2267H18.8133C20.3227 23.2267 21.5355 23.0667 22.5059 22.7467C23.4762 22.4267 24.3387 21.92 25.1473 21.1733C25.8211 20.56 26.3602 19.8933 26.7645 19.1733C27.1688 18.4533 27.4652 17.6533 27.627 16.7733C28.0582 14.64 27.7348 12.9867 26.6836 11.7867C25.6324 10.5867 23.9613 10 21.6703 10H14.0426L10.5117 28ZM30.5379 5.22667H34.473L33.5297 10H37.0336C39.2437 10 40.7531 10.3733 41.5887 11.1467C42.4242 11.92 42.6668 13.1467 42.3434 14.8533L40.6992 23.2267H36.7102L38.2734 15.2533C38.4621 14.3467 38.3813 13.7333 38.0848 13.4133C37.7883 13.0933 37.1145 12.9067 36.1172 12.9067H32.9637L30.9422 23.2267H27.007L30.5379 5.22667ZM51.0762 12.8533C52.5855 12.8533 53.5828 13.12 54.0949 13.68C54.607 14.24 54.7148 15.1733 54.4453 16.5067C54.1758 17.8933 53.6367 18.9067 52.8551 19.4933C52.0734 20.08 50.8875 20.3733 49.2973 20.3733H46.8984L48.3809 12.8533H51.0762ZM41.427 28H45.3891L46.3324 23.2267H49.7285C51.2379 23.2267 52.4508 23.0667 53.4211 22.7467C54.3914 22.4267 55.2539 21.92 56.0625 21.1733C56.7363 20.56 57.2754 19.8933 57.6797 19.1733C58.084 18.4533 58.3805 17.6533 58.5422 16.7733C58.9734 14.64 58.65 12.9867 57.5988 11.7867C56.5477 10.5867 54.8766 10 52.5855 10H44.9578L41.427 28Z" fill="#000004"/>
</g>
<defs>
<radialGradient id="paint0_radial_516_17" cx="0" cy="0" r="1" gradientUnits="userSpaceOnUse" gradientTransform="translate(20.7139 6.31134) scale(45.307 44.8254)">
<stop stop-color="white"/>
<stop offset="0.5" stop-color="#4C6B97"/>
<stop offset="1" stop-color="#231F20"/>
</radialGradient>
<clipPath id="clip0_516_17">
<rect width="69" height="36" fill="white"/>
</clipPath>
</defs>
</svg>
