<svg width="35" height="35" viewBox="0 0 35 35" fill="none" xmlns="http://www.w3.org/2000/svg">
<g clip-path="url(#clip0_516_110)">
<path d="M30.9305 7.12743C25.2023 -0.290385 14.5445 -1.65976 7.12642 4.06958C-0.290569 9.79891 -1.65858 20.4567 4.07076 27.8737C9.80119 35.2904 20.4598 36.6576 27.8757 30.9272C35.2897 25.1978 36.6579 14.5433 30.9305 7.12743Z" fill="#F37036"/>
<path d="M24.9044 6.60734C24.3201 6.65402 23.7662 6.88648 23.3236 7.2707C22.8055 7.72046 22.4749 8.34809 22.3969 9.02971C22.319 9.71133 22.4994 10.3974 22.9025 10.9525C23.3051 11.5079 23.9012 11.8922 24.5732 12.0296C25.2453 12.1671 25.9444 12.0476 26.5327 11.6949H26.5332L26.5759 11.7376C26.7696 11.6265 26.9499 11.4935 27.1132 11.3411C27.6167 10.8084 27.8938 10.1009 27.8858 9.36796C27.8778 8.63496 27.5855 7.93371 27.0705 7.41206V7.41152L24.6522 9.81476L24.6096 9.77238L27.0279 7.36804C26.748 7.09815 26.4139 6.89081 26.0478 6.75977C25.6817 6.62872 25.292 6.57695 24.9044 6.60788V6.60734ZM21.7204 10.5413C20.5611 10.5394 18.6681 11.8535 14.0459 16.4757L14.0688 16.4992C14.0437 16.4905 14.0183 16.4896 14.0183 16.4896L12.2781 18.2145C12.2334 18.257 12.2038 18.3129 12.1939 18.3738C12.1839 18.4347 12.1941 18.4971 12.2229 18.5516C12.2517 18.6062 12.2975 18.6498 12.3533 18.6759C12.4092 18.7021 12.4721 18.7092 12.5324 18.6963L15.5167 18.0597C15.5299 18.0473 15.5387 18.031 15.5419 18.0132L15.608 18.0816L14.5908 19.0906H14.5416L8.50248 25.1773L10.4401 27.0432C10.4942 27.0921 10.5626 27.1224 10.6352 27.1297C10.7078 27.137 10.7808 27.121 10.8437 27.084C10.9071 27.0472 10.9578 26.9921 10.9893 26.9259C11.0208 26.8597 11.0315 26.7856 11.02 26.7132L10.737 25.4827C10.7194 25.458 10.7099 25.4284 10.7099 25.398C10.7099 25.3676 10.7194 25.3379 10.737 25.3132C13.3823 24.0521 15.8422 22.4345 18.0482 20.5053L16.8081 19.2648L16.8317 19.2609L16.0961 18.5257L16.1431 18.4781L16.1929 18.5289L16.1672 18.5538L18.1187 20.548V20.5472C21.8594 17.0051 24.5144 14.1578 23.824 12.2415C23.7925 12.0124 23.6861 11.8001 23.5213 11.6378V11.6389C23.4795 11.6077 23.4353 11.5797 23.3892 11.5552C23.3665 11.5311 23.3466 11.5065 23.3225 11.483L23.3045 11.501C23.2538 11.4701 23.2006 11.4436 23.1453 11.4218L23.2244 11.3419C22.7333 10.9044 22.3275 10.5424 21.7204 10.5407V10.5413ZM8.46037 25.2137L7.04642 26.6279V26.629C6.99569 26.6604 6.95625 26.7071 6.93379 26.7624C6.91133 26.8177 6.90702 26.8787 6.92146 26.9366C6.93541 26.9945 6.96726 27.0465 7.01247 27.0852C7.05769 27.1239 7.11397 27.1474 7.1733 27.1523L10.6383 27.3916L8.46037 25.2137Z" fill="white"/>
<path d="M25.1428 6.37384C24.3492 6.37286 23.5871 6.68423 23.0212 7.24064C22.6185 7.65271 22.3429 8.17185 22.227 8.73621C22.1111 9.30057 22.16 9.88634 22.3677 10.4237C21.0713 9.86865 19.3175 10.8366 13.8621 16.2909C13.8583 16.2993 13.8549 16.3078 13.852 16.3166C13.8409 16.3216 13.83 16.3273 13.8195 16.3335L12.0944 18.0737C12.0117 18.1548 11.9574 18.2605 11.9395 18.375C11.9216 18.4895 11.9411 18.6066 11.9951 18.7092C12.0433 18.7903 12.1115 18.8576 12.1933 18.9047C12.275 18.9519 12.3675 18.9772 12.4619 18.9782L12.5474 18.9227L14.8509 18.4313L13.7489 19.5434C13.7425 19.558 13.7376 19.5732 13.7342 19.5888L8.33377 25.0026C8.31224 25.0207 8.29441 25.0428 8.28127 25.0677L6.89056 26.4595C6.82125 26.5326 6.77389 26.6238 6.75388 26.7226C6.73386 26.8213 6.742 26.9237 6.77736 27.0181C6.81363 27.1119 6.87511 27.1938 6.95502 27.2549C7.03492 27.3159 7.13015 27.3537 7.23017 27.364L10.6804 27.6046C10.7393 27.5839 10.7894 27.5439 10.8226 27.4911C10.8523 27.4499 10.8682 27.4004 10.8682 27.3496C10.8682 27.2989 10.8523 27.2494 10.8226 27.2081L10.8155 27.2013C10.8899 27.1622 10.9556 27.1082 11.0083 27.0427C11.0637 26.9708 11.1024 26.8875 11.1216 26.7987C11.1408 26.71 11.14 26.6181 11.1193 26.5297L10.8502 25.3849C13.4316 24.1512 15.8502 22.6026 18.0509 20.7744C18.0723 20.7866 18.0951 20.796 18.1187 20.8026C18.1882 20.7974 18.2533 20.7676 18.3025 20.7184C22.0076 17.2102 24.1855 14.8061 24.1855 12.8975C24.1935 12.6328 24.1536 12.3687 24.0676 12.1182C24.4015 12.2567 24.7577 12.3336 25.119 12.3452L25.1149 12.3463C25.6125 12.3311 26.0989 12.195 26.5321 11.9498C26.5325 11.9499 26.5329 11.95 26.5332 11.9501C26.5893 11.9669 26.6497 11.9615 26.7019 11.935C26.911 11.8119 27.1015 11.6598 27.2679 11.4833C27.5499 11.2066 27.7739 10.8765 27.9269 10.5123C28.0799 10.1481 28.1587 9.75701 28.1588 9.36197C28.1587 8.96694 28.0799 8.57589 27.927 8.21167C27.7741 7.84744 27.5501 7.51733 27.2682 7.24064C27.2581 7.2315 27.2474 7.22317 27.236 7.21576C26.6731 6.67529 25.9229 6.37368 25.1425 6.37412L25.1428 6.37384ZM25.119 6.85837C25.6716 6.86167 26.2079 7.04545 26.6464 7.38173L24.4403 9.60123C24.4328 9.60963 24.4258 9.61859 24.4195 9.62802C24.3798 9.66826 24.3565 9.72189 24.3542 9.77841C24.3542 9.81256 24.3619 9.84627 24.3767 9.87704C24.3915 9.90781 24.4131 9.93484 24.4398 9.95615H24.4403L26.1083 11.6241C25.6517 11.8232 25.1457 11.8798 24.6564 11.7865C24.1672 11.6931 23.7175 11.4542 23.3663 11.101C22.6592 10.3901 22.4541 9.32259 22.8322 8.39646C23.2104 7.46951 24.1119 6.86384 25.119 6.85837ZM27.0659 7.79681C27.4266 8.23323 27.6232 8.7821 27.6218 9.3483C27.6208 10.0116 27.3564 10.6474 26.8868 11.1158C26.7926 11.2044 26.6923 11.2862 26.5865 11.3605L25.2404 10.0352L24.9771 9.77185L25.0495 9.69939L27.0656 7.79626L27.0659 7.79681ZM26.9658 8.94334C26.9163 8.9277 26.8628 8.93071 26.8154 8.95181C26.7685 8.9761 26.7331 9.01798 26.717 9.0683C26.7091 9.09342 26.7062 9.11985 26.7085 9.14609C26.7109 9.17232 26.7184 9.19783 26.7306 9.22115C26.7792 9.3233 26.7984 9.43698 26.786 9.54942C26.7736 9.66186 26.7301 9.76862 26.6604 9.85771C26.6425 9.87491 26.6286 9.8957 26.6194 9.9187C26.6102 9.94171 26.606 9.9664 26.607 9.99115C26.6081 10.0415 26.6262 10.0896 26.6604 10.1257C26.6968 10.1396 26.7371 10.1396 26.7736 10.1257C26.8065 10.1339 26.8409 10.1329 26.8733 10.123C26.9057 10.113 26.9348 10.0944 26.9573 10.0691C27.0737 9.9264 27.1473 9.75375 27.1698 9.57103C27.1923 9.3883 27.1627 9.20294 27.0845 9.0363V9.0374C27.0578 8.99253 27.0156 8.95905 26.9658 8.94334ZM21.6947 10.7817C22.0247 10.7926 22.3423 10.9102 22.5998 11.1169C22.3224 11.1568 22.0652 11.2853 21.8667 11.4833L15.6304 17.6917L14.4065 16.4678C17.6408 13.2489 19.6183 11.5675 20.8476 11.0165C21.1008 10.8568 21.3954 10.7753 21.6947 10.7817ZM22.7789 11.591C22.9883 11.591 23.1892 11.674 23.3376 11.8218C23.4165 11.8959 23.4788 11.9859 23.5203 12.0859C23.5617 12.1859 23.5814 12.2936 23.5779 12.4018C23.5743 12.5096 23.5486 12.6155 23.5022 12.7128C23.4559 12.8102 23.39 12.897 23.3086 12.9678L16.6777 18.739L15.9621 18.0234L22.2203 11.8218C22.3687 11.6741 22.5696 11.591 22.7789 11.591ZM23.5976 13.4225C23.1355 15.2551 20.6863 17.7382 18.1324 20.151L17.0996 19.1193L23.5976 13.4225ZM14.0459 16.8293L14.1208 16.9031L15.0814 17.8637L12.4482 18.427L14.0459 16.8293ZM15.6299 18.4261L15.631 18.4272L15.9504 18.754C15.9517 18.7617 15.9533 18.7694 15.9553 18.777L15.9766 18.7802L16.0444 18.8497L16.2687 19.0794L14.7962 19.2599L15.6302 18.4259L15.6299 18.4261ZM16.6873 19.5407L17.6656 20.5185C15.5023 22.3174 13.1283 23.8468 10.5959 25.0729C10.5137 25.112 10.4476 25.1785 10.4089 25.2609C10.3701 25.3433 10.3611 25.4366 10.3835 25.5249L10.6665 26.7553C10.6769 26.7698 10.6825 26.7871 10.6825 26.805C10.6825 26.8228 10.6769 26.8401 10.6665 26.8546C10.6509 26.8685 10.6308 26.8763 10.6099 26.8763C10.589 26.8763 10.5688 26.8685 10.5533 26.8546L8.88474 25.1724L14.0276 19.9541L16.6873 19.5407ZM8.50248 25.5399L8.7401 25.7625L9.96838 26.9908L7.22963 26.8136L8.50248 25.5399Z" fill="#F37036"/>
</g>
<defs>
<clipPath id="clip0_516_110">
<rect width="35" height="35" fill="white"/>
</clipPath>
</defs>
</svg>
