<svg width="36" height="35" viewBox="0 0 36 35" fill="none" xmlns="http://www.w3.org/2000/svg">
<g clip-path="url(#clip0_516_55)">
<path d="M17.8477 0.00988388C8.73068 0.00988388 9.29993 3.86881 9.29993 3.86881L9.31006 7.86677H18.0102V9.06706H5.85448C5.85448 9.06706 0.0205078 8.42128 0.0205078 17.3998C0.0205078 26.3786 5.11254 26.0602 5.11254 26.0602H8.15145V21.8937C8.15145 21.8937 7.98762 16.9237 13.1622 16.9237H21.7912C21.7912 16.9237 26.6393 17.0001 26.6393 12.3505V4.66255C26.6393 4.66255 27.3756 0.00988388 17.8477 0.00988388ZM13.0504 2.69843C13.256 2.69825 13.4596 2.73764 13.6496 2.81435C13.8396 2.89106 14.0122 3.00358 14.1575 3.14547C14.3029 3.28736 14.4182 3.45584 14.4968 3.64126C14.5754 3.82668 14.6157 4.02542 14.6156 4.22608C14.6157 4.42674 14.5754 4.62547 14.4968 4.8109C14.4182 4.99632 14.3029 5.1648 14.1575 5.30669C14.0122 5.44858 13.8396 5.5611 13.6496 5.63781C13.4596 5.71452 13.256 5.75391 13.0504 5.75373C12.8448 5.75391 12.6412 5.71452 12.4512 5.63781C12.2612 5.5611 12.0886 5.44858 11.9433 5.30669C11.7979 5.1648 11.6826 4.99632 11.604 4.8109C11.5254 4.62547 11.4851 4.42674 11.4852 4.22608C11.4851 4.02542 11.5254 3.82668 11.604 3.64126C11.6826 3.45584 11.7979 3.28736 11.9433 3.14547C12.0886 3.00358 12.2612 2.89106 12.4512 2.81435C12.6412 2.73764 12.8448 2.69825 13.0504 2.69843Z" fill="url(#paint0_linear_516_55)"/>
<path d="M18.1067 34.88C27.2237 34.88 26.6544 31.0211 26.6544 31.0211L26.6443 27.0233H17.944V25.823H30.0997C30.0997 25.823 35.9337 26.4688 35.9337 17.49C35.9337 8.51131 30.8417 8.82974 30.8417 8.82974H27.8028V12.9961C27.8028 12.9961 27.9666 17.9661 22.792 17.9661H14.163C14.163 17.9661 9.31495 17.8897 9.31495 22.5394V30.2275C9.31495 30.2275 8.57877 34.88 18.1065 34.88H18.1067ZM22.904 32.1918C22.6984 32.1919 22.4948 32.1526 22.3048 32.0758C22.1148 31.9991 21.9422 31.8866 21.7968 31.7447C21.6514 31.6028 21.5362 31.4344 21.4576 31.2489C21.379 31.0635 21.3386 30.8648 21.3388 30.6641C21.3386 30.4634 21.3789 30.2647 21.4575 30.0793C21.5361 29.8938 21.6514 29.7253 21.7968 29.5834C21.9421 29.4415 22.1148 29.329 22.3048 29.2523C22.4947 29.1755 22.6984 29.1361 22.904 29.1363C23.1096 29.1361 23.3132 29.1755 23.5031 29.2522C23.6931 29.329 23.8657 29.4415 24.0111 29.5834C24.1565 29.7253 24.2718 29.8937 24.3504 30.0792C24.4289 30.2646 24.4693 30.4633 24.4691 30.664C24.4693 30.8646 24.4289 31.0634 24.3504 31.2488C24.2718 31.4342 24.1565 31.6027 24.0111 31.7446C23.8657 31.8865 23.6931 31.999 23.5031 32.0757C23.3132 32.1524 23.1096 32.1919 22.904 32.1918Z" fill="url(#paint1_linear_516_55)"/>
</g>
<defs>
<linearGradient id="paint0_linear_516_55" x1="345.144" y1="313.646" x2="2082.15" y2="2075.55" gradientUnits="userSpaceOnUse">
<stop stop-color="#387EB8"/>
<stop offset="1" stop-color="#366994"/>
</linearGradient>
<linearGradient id="paint1_linear_516_55" x1="518.718" y1="544.946" x2="2386.15" y2="2353.63" gradientUnits="userSpaceOnUse">
<stop stop-color="#FFE052"/>
<stop offset="1" stop-color="#FFC331"/>
</linearGradient>
<clipPath id="clip0_516_55">
<rect width="36" height="35" fill="white"/>
</clipPath>
</defs>
</svg>
