<svg width="42" height="37" viewBox="0 0 42 37" fill="none" xmlns="http://www.w3.org/2000/svg">
<g clip-path="url(#clip0_516_98)">
<path d="M34.5324 11.9802C34.0854 11.8285 33.6346 11.688 33.1805 11.5587C33.2568 11.2504 33.327 10.9458 33.3893 10.6466C34.4128 5.73254 33.7437 1.7737 31.4585 0.470261C29.2674 -0.7793 25.6841 0.523652 22.0653 3.63895C21.7086 3.94653 21.3599 4.26297 21.0194 4.58797C20.7914 4.37186 20.5594 4.15994 20.3236 3.95232C16.5308 0.621345 12.7291 -0.782546 10.4464 0.524625C8.25727 1.77808 7.60905 5.49966 8.53043 10.1568C8.6221 10.618 8.7256 11.0769 8.84084 11.5329C8.30271 11.6842 7.78345 11.8452 7.28651 12.0165C2.83976 13.5501 0 15.9533 0 18.4461C0 21.0207 3.04861 23.6031 7.68009 25.1689C8.05558 25.2953 8.43419 25.4125 8.81557 25.5202C8.69171 26.0114 8.58174 26.5059 8.4858 27.0032C7.60741 31.5795 8.29336 35.2131 10.4765 36.4586C12.7314 37.7448 16.516 36.4229 20.201 33.2365C20.4998 32.9775 20.7921 32.7111 21.0774 32.4376C21.4462 32.7895 21.8248 33.1312 22.2127 33.4623C25.7824 36.5005 29.3078 37.7273 31.4888 36.4784C33.7416 35.1884 34.4738 31.2849 33.5232 26.5358C33.4483 26.1637 33.3644 25.7935 33.2714 25.4255C33.5372 25.3476 33.798 25.2674 34.0523 25.184C38.8672 23.6061 42 21.0551 42 18.4461C42 15.9442 39.0685 13.5248 34.5324 11.9802ZM33.4881 23.4995C33.2584 23.5747 33.0228 23.6472 32.7826 23.7178C32.2511 22.0533 31.5338 20.2834 30.6559 18.4547C31.4936 16.6696 32.1833 14.9223 32.7 13.2687C33.1296 13.3917 33.5465 13.5214 33.9485 13.6582C37.8351 14.9817 40.2058 16.9383 40.2058 18.4461C40.2058 20.052 37.6455 22.1368 33.4881 23.4995ZM31.7632 26.8805C32.1835 28.9804 32.2434 30.8791 31.965 32.3635C31.7149 33.6972 31.2119 34.5864 30.5898 34.9426C29.2663 35.7004 26.4357 34.7154 23.383 32.1169C23.0221 31.8092 22.67 31.4915 22.3269 31.1644C23.5105 29.8841 24.6932 28.3959 25.8476 26.7429C27.878 26.5647 29.7962 26.2732 31.5358 25.8755C31.6196 26.2087 31.6954 26.5437 31.7632 26.8805ZM14.3187 34.8116C13.0256 35.2632 11.9956 35.2762 11.373 34.9212C10.0482 34.1654 9.49741 31.2478 10.2487 27.3342C10.338 26.8718 10.4402 26.4118 10.5553 25.955C12.2756 26.3315 14.1799 26.6022 16.2151 26.7654C17.3773 28.3829 18.5942 29.8695 19.8206 31.1713C19.5599 31.4208 19.2931 31.6638 19.0204 31.9003C17.3908 33.3092 15.7579 34.3089 14.3187 34.8116ZM8.26055 23.4896C6.21255 22.7972 4.52123 21.8973 3.36197 20.9154C2.32017 20.033 1.79435 19.1569 1.79435 18.4461C1.79435 16.9333 4.07433 15.0038 7.87713 13.6924C8.33864 13.5334 8.82164 13.3833 9.32285 13.2424C9.84851 14.9334 10.5379 16.7014 11.3699 18.4893C10.5271 20.3036 9.82784 22.0998 9.29709 23.8108C8.94897 23.7121 8.60335 23.6051 8.26055 23.4896ZM10.2913 9.81584C9.50201 5.82585 10.0262 2.81603 11.3454 2.06061C12.7504 1.25602 15.8575 2.40319 19.1323 5.27945C19.3459 5.46743 19.556 5.65923 19.7625 5.85473C18.5422 7.15087 17.3365 8.62649 16.1846 10.2344C14.2093 10.4155 12.3185 10.7063 10.5801 11.0959C10.473 10.6717 10.3767 10.2448 10.2913 9.81584ZM28.4082 14.2409C27.9976 13.5394 27.5718 12.8466 27.131 12.1632C28.4711 12.3309 29.755 12.5534 30.9607 12.8253C30.5988 13.973 30.1476 15.1727 29.6166 16.4028C29.2284 15.6743 28.8255 14.9535 28.4082 14.2409ZM21.0202 7.12312C21.8477 8.00999 22.6766 9.00006 23.4918 10.0744C21.838 9.9971 20.1815 9.99678 18.5277 10.0734C19.3438 9.00899 20.1797 8.02021 21.0202 7.12312ZM13.5847 14.2531C13.1726 14.96 12.7773 15.6762 12.399 16.4014C11.8766 15.1757 11.4296 13.9704 11.0645 12.8065C12.2629 12.5413 13.5407 12.3245 14.8723 12.16C14.4266 12.8476 13.9973 13.5456 13.5847 14.2531ZM14.9105 24.8585C13.5348 24.7066 12.2378 24.501 11.0398 24.2429C11.4105 23.0583 11.8675 21.8274 12.4012 20.5754C12.7809 21.301 13.1779 22.0178 13.5918 22.725C14.0173 23.452 14.458 24.1641 14.9105 24.8585ZM21.0697 29.894C20.2192 28.9866 19.371 27.9825 18.5427 26.9027C19.3469 26.9339 20.1667 26.9498 21 26.9498C21.8561 26.9498 22.7023 26.9308 23.5353 26.8941C22.7174 27.9934 21.8917 28.9989 21.0697 29.894ZM29.6335 20.5114C30.1949 21.7772 30.668 23.0016 31.0437 24.166C29.8261 24.4409 28.5113 24.6623 27.1259 24.8266C27.5698 24.1306 27.9997 23.4258 28.4153 22.7128C28.8378 21.988 29.244 21.2541 29.6335 20.5114ZM26.8611 21.8261C26.2249 22.9193 25.553 23.9917 24.8463 25.0417C23.5662 25.1313 22.2833 25.1759 21 25.1752C19.6929 25.1752 18.4216 25.135 17.1974 25.0564C16.4722 24.0089 15.7874 22.9346 15.1444 21.8358C14.5045 20.7429 13.9069 19.6263 13.3526 18.4885C13.9054 17.3504 14.5014 16.2332 15.1392 15.1395L15.139 15.1396C15.7766 14.0456 16.4559 12.9759 17.1755 11.9328C18.4245 11.8393 19.7054 11.7906 20.9998 11.7906C22.3002 11.7906 23.5828 11.8398 24.8315 11.9339C25.5439 12.9754 26.2189 14.0415 26.8552 15.1301C27.4951 16.2214 28.099 17.3331 28.6658 18.4633C28.1048 19.6051 27.5029 20.7267 26.8611 21.8261ZM30.5624 2.00771C31.9687 2.81002 32.5157 6.04541 31.6321 10.2882C31.5756 10.5589 31.5123 10.8346 31.4434 11.1143C29.7007 10.7163 27.8086 10.4205 25.8275 10.2366C24.6735 8.61107 23.4777 7.13318 22.2772 5.85376C22.5918 5.55379 22.9139 5.26159 23.2432 4.97745C26.344 2.30841 29.242 1.25456 30.5624 2.00771ZM21 14.7364C23.0713 14.7364 24.7505 16.3973 24.7505 18.4461C24.7505 20.4949 23.0713 22.1558 21 22.1558C18.9287 22.1558 17.2495 20.4949 17.2495 18.4461C17.2495 16.3973 18.9287 14.7364 21 14.7364Z" fill="#00D8FF"/>
</g>
<defs>
<clipPath id="clip0_516_98">
<rect width="42" height="37" fill="white"/>
</clipPath>
</defs>
</svg>
