<svg width="35" height="35" viewBox="0 0 35 35" fill="none" xmlns="http://www.w3.org/2000/svg">
<g clip-path="url(#clip0_516_8)">
<path d="M6.19873 12.8516H33.4522V32.9957H6.19873V12.8516Z" fill="white"/>
<path d="M0.410156 17.4754V34.5652H34.5898V0.385548H0.410156V17.4754ZM27.9535 16.1082C28.7722 16.2982 29.5162 16.7263 30.0918 17.3387C30.4087 17.6686 30.6841 18.0359 30.9121 18.4324C30.9121 18.4762 29.4355 19.4742 28.5359 20.032C28.5031 20.0539 28.3719 19.9117 28.227 19.6957C28.0627 19.4123 27.8294 19.1752 27.5487 19.0064C27.268 18.8376 26.9492 18.7427 26.6219 18.7305C25.5855 18.6594 24.9184 19.2035 24.9238 20.0977C24.9153 20.3203 24.9662 20.5411 25.0715 20.7375C25.2984 21.2105 25.7223 21.4922 27.0512 22.0664C29.4984 23.1191 30.5457 23.8137 31.1965 24.8008C31.9238 25.8945 32.0852 27.6609 31.593 28.968C31.0461 30.3898 29.7062 31.3551 27.8113 31.675C26.9459 31.7741 26.0714 31.7649 25.2082 31.6477C23.8852 31.4296 22.6666 30.7944 21.7301 29.8348C21.4156 29.4875 20.8031 28.5824 20.8414 28.5168C20.9412 28.4427 21.0463 28.376 21.1559 28.3172L22.4219 27.6172L23.4035 27.0484L23.6086 27.352C23.9547 27.847 24.3952 28.2689 24.9047 28.5934C25.9984 29.1676 27.4914 29.0883 28.2297 28.4238C28.4776 28.1803 28.6322 27.8576 28.6667 27.5119C28.7012 27.1662 28.6133 26.8193 28.4184 26.5316C28.1449 26.1516 27.598 25.8316 26.0695 25.1645C24.3059 24.4043 23.5457 23.934 22.8512 23.1848C22.4176 22.6904 22.0975 22.1071 21.9133 21.4758C21.7759 20.7546 21.7556 20.0159 21.8531 19.2883C22.2168 17.5848 23.4937 16.3953 25.3586 16.0426C26.2222 15.9357 27.097 15.9597 27.9535 16.1137V16.1082ZM19.9309 17.541V18.941H15.493V31.582H12.3457V18.9383H7.89687V17.5711C7.88302 17.0996 7.89397 16.6277 7.92969 16.1574C7.95156 16.1328 10.6641 16.1328 13.9453 16.1328H19.9145L19.9309 17.541Z" fill="#007ACC"/>
</g>
<defs>
<clipPath id="clip0_516_8">
<rect width="35" height="35" fill="white"/>
</clipPath>
</defs>
</svg>
