<svg width="35" height="35" viewBox="0 0 35 35" fill="none" xmlns="http://www.w3.org/2000/svg">
<g clip-path="url(#clip0_516_81)">
<path d="M17.5393 0.265839L0.266113 17.4162L17.5393 34.6459L34.7332 17.4162L17.5393 0.265839Z" fill="#019833"/>
<path d="M17.5362 1.8407V0.392899L0.379395 17.4194H1.84953L17.5362 1.8407Z" fill="#66FE98"/>
<path d="M17.5361 1.8407V0.392899L34.7463 17.4194H33.1554L17.5361 1.8407Z" fill="#45FE02"/>
<path d="M17.5362 33.071V34.6738L0.379395 17.4194H1.84953L17.5362 33.071Z" fill="#017D17"/>
<path d="M17.5361 33.071V34.6738L34.7463 17.4194H33.1554L17.5361 33.071Z" fill="#005D04"/>
<path d="M8.91742 31.4034H5.5916L4.29277 30.1426V6.06712H3.26191L2.37939 5.18681V2.49562L3.29363 1.50786H14.925L15.9707 2.55078V5.1051L15.1018 6.16013H14.2229V14.2984L22.4926 6.16013H22.0309L21.0691 5.12689V2.4184L22.0141 1.5543H33.7544L34.6836 2.48105V5.04272L8.91742 31.4034Z" fill="black"/>
<path d="M17.5361 34.9104L0 17.4194L17.5361 0L35 17.4194L17.5361 34.9104ZM0.537168 17.4194L17.5361 34.3749L34.4626 17.4194L17.5361 0.535895L0.537168 17.4194Z" fill="black"/>
<path d="M14.7757 3.09716L15.2923 2.76472L14.7645 2.21889H3.5758L3.00732 2.78597V4.93091L3.6376 5.55955L3.93824 4.93091L3.54285 4.53638V3.0243L3.83939 2.76132L14.4028 2.77426L14.7757 3.09716Z" fill="#FEFEFE"/>
<path d="M5.66801 4.87997V29.9838L6.02238 30.3199L5.73842 30.8545L4.99316 30.1233V5.53081L5.66801 4.87997Z" fill="#FEFEFE"/>
<path d="M3.86027 4.87997L3.6377 5.55955H4.9893L5.77119 4.87997H3.86027Z" fill="#808080"/>
<path d="M22.768 4.88869L22.2954 4.55612V3.20842L22.7898 2.71529H33.1051L33.5006 3.24124L34.0635 2.79877L33.484 2.27145H22.3942L21.8422 2.82206V4.98348L22.4235 5.50752M13.4527 15.8999L12.3755 18.5071L24.5363 6.34439L24.4769 4.87303L13.4527 15.8999Z" fill="#FEFEFE"/>
<path d="M14.7513 3.08749L15.2923 2.76472V4.87998L14.6748 5.49595H13.4746L13.4524 15.8999L12.3793 18.5011V4.87998H14.3834L14.7562 4.57778L14.7513 3.08749ZM33.4636 3.09443L34.0631 2.79877V4.73031L8.53213 30.8545H5.73828L6.0109 30.341L8.1567 30.3412L33.4673 4.2734L33.4636 3.09443ZM24.4765 4.87303L23.8547 5.49527L22.4232 5.50753L22.7728 4.88243L24.4765 4.87303Z" fill="#808080"/>
<path d="M22.6914 2.69513L22.2963 3.08912V4.53597L22.6424 4.88106H24.4706V6.27902L12.3764 18.5063V4.89836H14.3863L14.7987 4.48708V3.02293L14.418 2.72958H3.84066L3.49463 3.07482V4.57042L3.84641 4.92137H5.68623V29.98L6.03227 30.3251H8.12297L33.4678 4.23962V3.08912L33.0726 2.69513H22.6914Z" fill="#CCCCCC"/>
<path d="M8.13734 30.3585H6.01861L5.65303 29.9938V4.95461H3.83275L3.46143 4.58419V3.06094L3.82701 2.69637H14.4297L14.8323 3.0066V4.50084L14.4004 4.9316H12.4099V18.4251L24.4374 6.26528V4.91444H22.6287L22.2631 4.54973V3.07537L22.6777 2.66177H33.0866L33.5013 3.07537V4.25312L33.492 4.26279L8.13734 30.3585ZM6.04637 30.2919H8.10904L33.4346 4.22629V3.10288L33.059 2.72837H22.7054L22.3298 3.10288V4.52222L22.6563 4.84784H24.5042V6.29265L24.4946 6.30232L12.3432 18.5875V4.86514H14.3727L14.7655 4.47319V3.03928L14.4069 2.76282H3.85463L3.52814 3.08858V4.55668L3.86051 4.88816H5.71975V29.9661L6.04637 30.2919Z" fill="#808080"/>
<path d="M18.3975 19.5862C18.3783 19.5903 18.3604 19.5992 18.3456 19.6121L17.8555 20.032C17.8408 20.0453 17.8299 20.0621 17.8237 20.0809L17.3335 21.4501C17.3262 21.4702 17.3248 21.4919 17.3294 21.5128C17.334 21.5336 17.3444 21.5528 17.3594 21.568L17.7343 21.9419C17.756 21.9626 17.785 21.974 17.8151 21.9736H19.329C19.3591 21.9741 19.3881 21.9627 19.4097 21.9419L19.8048 21.545C19.8185 21.5314 19.8283 21.5145 19.8336 21.4961L20.2547 20.055C20.2604 20.0355 20.2608 20.0147 20.2557 19.995C20.2506 19.9753 20.2403 19.9573 20.2259 19.9429L19.8999 19.6178C19.8892 19.6075 19.8766 19.5995 19.8628 19.594C19.8489 19.5886 19.8342 19.586 19.8193 19.5862H18.4207C18.413 19.5854 18.4052 19.5854 18.3975 19.5862ZM15.6235 23.4462C15.6027 23.4507 15.5836 23.4608 15.5683 23.4756C15.553 23.4904 15.5421 23.5091 15.537 23.5297L15.3495 24.2718C15.3454 24.2884 15.345 24.3058 15.3486 24.3226C15.3521 24.3394 15.3594 24.3551 15.37 24.3687C15.3805 24.3823 15.394 24.3933 15.4094 24.4009C15.4249 24.4085 15.4418 24.4126 15.4591 24.4127H16.3502L14.1412 30.7032C14.1355 30.7201 14.1338 30.7382 14.1365 30.756C14.1391 30.7737 14.1459 30.7905 14.1563 30.8051C14.1667 30.8197 14.1805 30.8317 14.1964 30.8399C14.2123 30.8482 14.23 30.8527 14.248 30.8528H17.4632C17.4874 30.8531 17.5111 30.8458 17.5308 30.8318C17.5505 30.8178 17.5652 30.798 17.5729 30.7751L17.7834 30.0992C17.7886 30.0822 17.7897 30.0642 17.7867 30.0466C17.7836 30.0291 17.7765 30.0125 17.7658 29.9983C17.7551 29.984 17.7412 29.9724 17.7252 29.9645C17.7093 29.9565 17.6916 29.9524 17.6738 29.9525H16.9471L19.133 23.5959C19.1387 23.5789 19.1403 23.5608 19.1377 23.5431C19.1351 23.5254 19.1283 23.5085 19.1179 23.4939C19.1075 23.4793 19.0937 23.4674 19.0778 23.4591C19.0618 23.4508 19.0442 23.4464 19.0262 23.4462H15.6465C15.6389 23.4455 15.6312 23.4455 15.6235 23.4462ZM25.8549 23.4692C25.8301 23.4743 25.8077 23.4875 25.7913 23.5067L25.1223 24.2602H24.0582L23.3488 23.5268C23.3384 23.516 23.3258 23.5073 23.312 23.5014C23.2981 23.4955 23.2832 23.4923 23.2682 23.4922H20.7276C20.7043 23.4923 20.6815 23.4995 20.6624 23.5128C20.6433 23.5262 20.6288 23.5451 20.6209 23.567L20.3874 24.2632C20.3817 24.2801 20.3801 24.2982 20.3827 24.3159C20.3854 24.3335 20.3922 24.3503 20.4026 24.3649C20.4129 24.3795 20.4266 24.3914 20.4425 24.3997C20.4584 24.408 20.476 24.4125 20.494 24.4127H21.1746L19.0579 30.6341C19.0522 30.6511 19.0506 30.6692 19.0533 30.6869C19.0559 30.7046 19.0627 30.7214 19.0731 30.736C19.0835 30.7505 19.0973 30.7625 19.1132 30.7708C19.1291 30.7791 19.1467 30.7836 19.1647 30.7838H21.8695C21.8929 30.7837 21.9156 30.7765 21.9347 30.7632C21.9538 30.7498 21.9683 30.7309 21.9763 30.709L22.1838 30.102C22.1895 30.0851 22.1912 30.067 22.1885 30.0493C22.1859 30.0316 22.1791 30.0148 22.1687 30.0002C22.1583 29.9857 22.1446 29.9737 22.1287 29.9654C22.1128 29.9572 22.0951 29.9527 22.0772 29.9525H21.6043L22.9538 25.7156H25.3963L23.8565 30.6371C23.8512 30.6541 23.85 30.6721 23.8531 30.6897C23.8561 30.7072 23.8632 30.7238 23.8739 30.7381C23.8846 30.7524 23.8984 30.764 23.9144 30.7719C23.9304 30.7798 23.9481 30.7839 23.966 30.7838H26.5757C26.5978 30.7836 26.6195 30.777 26.6379 30.7647C26.6564 30.7524 26.6709 30.7351 26.6796 30.7147L26.9131 30.1567C26.9199 30.1396 26.9225 30.1212 26.9205 30.1029C26.9186 30.0847 26.9123 30.0672 26.9021 30.0519C26.8919 30.0366 26.8781 30.0241 26.8619 30.0153C26.8458 30.0065 26.8277 30.0017 26.8093 30.0014H26.3364L27.7091 25.6926H30.0333L28.4703 30.6371C28.4651 30.6541 28.4639 30.6722 28.467 30.6897C28.47 30.7072 28.4772 30.7238 28.4878 30.7381C28.4985 30.7524 28.5124 30.764 28.5284 30.7719C28.5444 30.7798 28.5621 30.7839 28.5799 30.7838H31.4463C31.4693 30.7839 31.4918 30.7771 31.5108 30.7643C31.5299 30.7515 31.5446 30.7332 31.553 30.7119L31.7865 30.1049C31.7928 30.0878 31.7949 30.0694 31.7925 30.0513C31.7902 30.0333 31.7835 30.016 31.773 30.0011C31.7626 29.9861 31.7486 29.9739 31.7324 29.9655C31.7162 29.957 31.6982 29.9526 31.6799 29.9525H31.1117L32.8391 24.3581C32.8448 24.3407 32.8462 24.3222 32.8432 24.3042C32.8402 24.2861 32.8328 24.2691 32.8218 24.2545L32.2854 23.5354C32.2745 23.5215 32.2604 23.5104 32.2444 23.5029C32.2284 23.4954 32.2108 23.4918 32.1932 23.4922H30.1429C30.1273 23.4919 30.1119 23.4949 30.0975 23.5008C30.0831 23.5068 30.0701 23.5156 30.0592 23.5268L29.4132 24.2343H28.2829L27.6139 23.5038C27.6031 23.4926 27.5901 23.4838 27.5757 23.4778C27.5613 23.4719 27.5458 23.4689 27.5302 23.4692H25.8778C25.8702 23.4685 25.8625 23.4685 25.8549 23.4692Z" fill="#CCCCCC"/>
<path d="M17.5493 22.1336C17.6208 22.2023 17.7143 22.2399 17.8092 22.2399L17.8154 22.2397H19.3247C19.4261 22.2428 19.5221 22.2039 19.5999 22.1294L19.9941 21.7332C20.0397 21.6878 20.0732 21.631 20.0906 21.5705L20.5115 20.1296C20.5307 20.0643 20.5319 19.995 20.5149 19.9291C20.498 19.8631 20.4635 19.803 20.4152 19.7549L20.0858 19.4262C20.0507 19.3918 20.0091 19.3647 19.9634 19.3465C19.9177 19.3282 19.8688 19.3192 19.8196 19.32H18.4305C18.4107 19.3189 18.3907 19.3193 18.3709 19.3214L18.3429 19.3257C18.2787 19.3392 18.2186 19.369 18.1717 19.4102L17.6815 19.8302L17.6759 19.8352C17.6281 19.8785 17.5922 19.9333 17.5714 19.9941L17.0822 21.3602C17.0583 21.4278 17.0538 21.5008 17.0695 21.5708C17.0851 21.6408 17.1202 21.705 17.1707 21.7561L17.5493 22.1336ZM19.7578 19.8524L19.9731 20.0671L19.5881 21.3849L19.2674 21.7074L17.8772 21.7075L17.6179 21.4487L18.0632 20.2054L18.4753 19.8524H19.7578ZM33.0366 24.0957L32.5003 23.3766L32.4955 23.3705C32.4592 23.3248 32.413 23.2881 32.3602 23.263C32.3075 23.238 32.2497 23.2254 32.1913 23.2261H30.1476C30.0954 23.225 30.0436 23.2348 29.9954 23.2546C29.9472 23.2745 29.9036 23.3041 29.8675 23.3416L29.2954 23.9682H28.4012L27.8116 23.3244L27.8062 23.3186C27.7703 23.282 27.7274 23.253 27.6801 23.2331C27.6327 23.2133 27.5819 23.2031 27.5305 23.2031H25.8877C25.8679 23.202 25.8479 23.2024 25.8281 23.2045L25.8005 23.2087C25.7194 23.2254 25.646 23.2681 25.5915 23.3303L25.0022 23.9941H24.1722L23.5412 23.3417C23.5057 23.3054 23.4633 23.2765 23.4165 23.2567C23.3697 23.2368 23.3194 23.2264 23.2685 23.2261H20.7271C20.6491 23.2265 20.5731 23.2507 20.5092 23.2954C20.4454 23.3401 20.3968 23.4033 20.37 23.4763L20.1343 24.1783C20.1153 24.2353 20.11 24.296 20.119 24.3554C20.128 24.4148 20.151 24.4712 20.1862 24.52C20.2213 24.5689 20.2675 24.6087 20.3211 24.6363C20.3746 24.6639 20.434 24.6785 20.4943 24.6788H20.8022L18.8047 30.5498C18.7729 30.6453 18.7803 30.7494 18.8253 30.8394C18.8703 30.9295 18.9493 30.9981 19.045 31.0303C19.0828 31.0428 19.1222 31.0495 19.165 31.0499H21.8707C21.9495 31.0493 22.0263 31.0245 22.0905 30.9788C22.1548 30.9332 22.2033 30.8689 22.2295 30.7948L22.4376 30.1866C22.4567 30.1296 22.4619 30.069 22.4528 30.0096C22.4438 29.9502 22.4207 29.8938 22.3856 29.845C22.3505 29.7962 22.3043 29.7564 22.2507 29.7288C22.1972 29.7012 22.1378 29.6866 22.0775 29.6863H21.9696L23.1497 25.9819H25.0334L23.6011 30.5592C23.5717 30.6554 23.5818 30.7593 23.6291 30.8482C23.6764 30.937 23.7572 31.0035 23.8536 31.0332C23.8903 31.0438 23.9281 31.0494 23.9663 31.0499H26.5783C26.6528 31.0492 26.7255 31.0268 26.7874 30.9855C26.8493 30.9441 26.8977 30.8856 26.9265 30.8172L27.162 30.2547C27.1847 30.1973 27.1931 30.1352 27.1864 30.0738C27.1796 30.0124 27.158 29.9536 27.1233 29.9024C27.0886 29.8513 27.0419 29.8093 26.9872 29.7801C26.9326 29.751 26.8716 29.7356 26.8096 29.7352H26.7019L27.9049 25.9588H29.6692L28.215 30.5595C28.1977 30.6161 28.194 30.676 28.2041 30.7343C28.2142 30.7926 28.2379 30.8478 28.2731 30.8954C28.3084 30.9431 28.3544 30.9818 28.4073 31.0086C28.4603 31.0355 28.5188 31.0496 28.5782 31.0499H31.4448C31.522 31.0499 31.5975 31.0267 31.6614 30.9834C31.7252 30.9401 31.7745 30.8787 31.8029 30.8071L32.0379 30.1963C32.0588 30.1389 32.0656 30.0774 32.0576 30.0169C32.0497 29.9564 32.0272 29.8987 31.9921 29.8487C31.957 29.7987 31.9104 29.7578 31.8561 29.7295C31.8018 29.7013 31.7415 29.6864 31.6802 29.6863H31.4738L33.0935 24.4406C33.1125 24.3828 33.1172 24.3213 33.1073 24.2612C33.0974 24.2012 33.0731 24.1444 33.0366 24.0957ZM30.7503 30.2186H31.457L31.3419 30.5176H28.7885L30.3979 25.4265H27.5137L25.9715 30.2677H26.5775L26.4729 30.5176H24.174L25.7598 25.4495H22.7585L21.2394 30.2186H21.8621L21.7598 30.5176H19.3801L21.5476 24.1465H20.7086L20.8387 23.7585H23.2022L23.945 24.5264H25.2431L25.9452 23.7355L27.4646 23.7353L28.1652 24.5006H29.5318L30.2093 23.7585H32.1192L32.5617 24.3517L30.7503 30.2186ZM17.7867 29.703C17.7501 29.6923 17.7122 29.6866 17.6741 29.6863H17.3213L19.3866 23.6806C19.4057 23.6236 19.4109 23.5629 19.4019 23.5035C19.3929 23.4441 19.3699 23.3876 19.3348 23.3388C19.2996 23.29 19.2534 23.2501 19.1998 23.2225C19.1462 23.1949 19.0868 23.1804 19.0265 23.1801H15.6564C15.6365 23.179 15.6165 23.1794 15.5966 23.1814L15.5675 23.1861C15.4979 23.2007 15.4337 23.2346 15.3825 23.2839C15.3313 23.3332 15.2951 23.3959 15.2781 23.4647L15.0905 24.2075C15.0663 24.3052 15.0819 24.4086 15.1341 24.4949C15.1862 24.5812 15.2705 24.6433 15.3686 24.6678C15.3976 24.6749 15.4275 24.6787 15.4594 24.6788H15.9738L13.8882 30.6186C13.8692 30.6756 13.8639 30.7363 13.873 30.7957C13.882 30.855 13.905 30.9115 13.9401 30.9603C13.9753 31.0091 14.0215 31.0489 14.0751 31.0765C14.1287 31.1041 14.188 31.1186 14.2483 31.119H17.4653C17.6299 31.119 17.7747 31.015 17.8284 30.8539L18.0393 30.177C18.0687 30.0808 18.0586 29.9769 18.0113 29.888C17.9639 29.7992 17.8832 29.7327 17.7867 29.703ZM14.4656 30.5866L16.727 24.1465H15.6571L15.7667 23.7124H18.8106L16.5734 30.2186H17.4667L17.3521 30.5866H14.4656Z" fill="black"/>
</g>
<defs>
<clipPath id="clip0_516_81">
<rect width="35" height="35" fill="white"/>
</clipPath>
</defs>
</svg>
