<svg width="36" height="35" viewBox="0 0 36 35" fill="none" xmlns="http://www.w3.org/2000/svg">
<g clip-path="url(#clip0_516_70)">
<mask id="mask0_516_70" style="mask-type:alpha" maskUnits="userSpaceOnUse" x="0" y="0" width="36" height="35">
<path fill-rule="evenodd" clip-rule="evenodd" d="M25.5283 34.761C25.8148 34.8696 26.1212 34.9197 26.4284 34.9082C26.7357 34.8968 27.0372 34.8239 27.3143 34.6943L34.726 31.2268C35.1077 31.0482 35.4298 30.7684 35.6552 30.4197C35.8806 30.071 36.0001 29.6675 36.0001 29.2556V5.74464C36.0002 5.33274 35.8807 4.92918 35.6553 4.58041C35.4299 4.23164 35.1078 3.95182 34.726 3.77316L27.3143 0.306243C26.8954 0.110327 26.4243 0.0458219 25.9662 0.121656C25.508 0.19749 25.0854 0.409912 24.7569 0.729524L10.5678 13.3148L4.3876 8.75355C4.10881 8.54775 3.76471 8.44333 3.41501 8.45842C3.06531 8.4735 2.73208 8.60713 2.47313 8.83613L0.490882 10.5891C0.336405 10.7257 0.212955 10.8922 0.128428 11.0778C0.0439011 11.2634 0.000159269 11.4642 4.34126e-07 11.6672C-0.0001584 11.8702 0.0432693 12.071 0.127505 12.2568C0.211742 12.4426 0.334931 12.6092 0.489195 12.746L5.84898 17.5L0.489476 22.2543C0.335297 22.3911 0.212181 22.5577 0.127997 22.7434C0.043813 22.9292 0.000413512 23.1299 0.00057233 23.3329C0.000731148 23.5359 0.0444448 23.7366 0.128919 23.9222C0.213394 24.1078 0.33677 24.2742 0.491163 24.4109L2.47341 26.1639C2.7323 26.3929 3.06553 26.5267 3.41524 26.5418C3.76496 26.5569 4.10908 26.4525 4.38788 26.2467L10.5681 21.6858L24.7571 34.2707C24.9765 34.4844 25.239 34.6514 25.5283 34.761ZM27.0054 9.55472L16.2395 17.5L27.0057 25.4455L27.0054 9.55472Z" fill="white"/>
</mask>
<g mask="url(#mask0_516_70)">
<path d="M34.7266 3.7789L27.3089 0.306244C26.89 0.110198 26.4187 0.0456231 25.9603 0.121458C25.5019 0.197292 25.0791 0.409786 24.7504 0.729526L0.467829 22.2543C0.313534 22.391 0.190314 22.5576 0.106056 22.7434C0.0217973 22.9291 -0.0216428 23.1299 -0.0214839 23.3329C-0.0213251 23.5359 0.0224292 23.7367 0.106978 23.9223C0.191527 24.1079 0.315008 24.2743 0.469516 24.4109L2.45289 26.1639C2.71201 26.3929 3.04541 26.5266 3.39529 26.5418C3.74517 26.5569 4.08947 26.4525 4.36848 26.2467L33.6103 4.67933C34.5913 3.95582 36.0004 4.63613 36.0004 5.83324V5.74957C36.0004 5.33779 35.8808 4.93439 35.6555 4.58573C35.4302 4.23707 35.1082 3.95759 34.7266 3.7789Z" fill="#0065A9"/>
<g filter="url(#filter0_d_516_70)">
<path d="M34.7266 31.2214L27.3089 34.6935C26.89 34.8896 26.4187 34.9542 25.9604 34.8785C25.502 34.8028 25.0792 34.5904 24.7504 34.2707L0.467829 12.7457C0.313534 12.609 0.190314 12.4424 0.106056 12.2566C0.0217973 12.0709 -0.0216428 11.8701 -0.0214839 11.6671C-0.0213251 11.4641 0.0224292 11.2633 0.106978 11.0777C0.191527 10.8921 0.315008 10.7257 0.469516 10.5891L2.45289 8.83612C2.71201 8.60705 3.04541 8.47336 3.39529 8.45823C3.74517 8.4431 4.08947 8.54748 4.36848 8.75327L33.6103 30.3204C34.5913 31.0442 36.0004 30.3639 36.0004 29.1667V29.2504C36.0004 29.6622 35.8808 30.0656 35.6555 30.4143C35.4302 30.7629 35.1082 31.0427 34.7266 31.2214Z" fill="#007ACC"/>
</g>
<g filter="url(#filter1_d_516_70)">
<path d="M27.3093 34.6943C26.8902 34.8902 26.4189 34.9547 25.9605 34.8788C25.5021 34.8029 25.0793 34.5904 24.7505 34.2707C25.5807 35.0779 27.0005 34.5062 27.0005 33.3646V1.63515C27.0005 0.493547 25.5807 -0.0782107 24.7505 0.72925C25.0793 0.409548 25.5021 0.197064 25.9605 0.121185C26.4189 0.0453064 26.8902 0.109782 27.3093 0.305696L34.7256 3.77343C35.1075 3.95198 35.4298 4.23174 35.6553 4.58053C35.8808 4.92931 36.0005 5.33293 36.0005 5.74491V29.2556C36.0005 29.6676 35.8808 30.0712 35.6553 30.42C35.4298 30.7688 35.1075 31.0486 34.7256 31.2271L27.3093 34.6943Z" fill="#1F9CF0"/>
</g>
<path opacity="0.25" fill-rule="evenodd" clip-rule="evenodd" d="M25.507 34.761C25.7934 34.8696 26.0997 34.9197 26.4069 34.9082C26.7141 34.8967 27.0156 34.8239 27.2926 34.6943L34.7044 31.2269C35.0862 31.0482 35.4083 30.7684 35.6337 30.4196C35.859 30.0708 35.9786 29.6673 35.9785 29.2554V5.74467C35.9786 5.33277 35.859 4.92921 35.6337 4.58044C35.4083 4.23167 35.0862 3.95185 34.7044 3.77319L27.2926 0.306274C26.8738 0.110357 26.4027 0.0458524 25.9446 0.121686C25.4864 0.19752 25.0638 0.409943 24.7352 0.729555L10.5462 13.3148L4.36598 8.75385C4.08719 8.54805 3.74309 8.44364 3.39339 8.45872C3.04369 8.47381 2.71046 8.60744 2.45151 8.83643L0.469261 10.5894C0.314823 10.7261 0.191407 10.8925 0.106905 11.0781C0.0224032 11.2638 -0.0213251 11.4645 -0.0214839 11.6675C-0.0216428 11.8705 0.0217714 12.0713 0.105983 12.2571C0.190194 12.4428 0.313349 12.6095 0.467574 12.7463L5.82736 17.5L0.467855 22.254C0.313592 22.3908 0.190402 22.5575 0.106166 22.7432C0.0219298 22.929 -0.0214979 23.1298 -0.021339 23.3328C-0.0211802 23.5358 0.0225617 23.7366 0.107088 23.9222C0.191615 24.1078 0.315066 24.2743 0.469543 24.4109L2.45179 26.1639C2.71071 26.3929 3.04392 26.5266 3.39362 26.5417C3.74332 26.5569 4.08744 26.4525 4.36626 26.2467L10.5467 21.6855L24.7358 34.2708C24.9551 34.4844 25.2177 34.6514 25.507 34.761ZM26.9841 9.55448L16.2179 17.5L26.9841 25.4453V9.55448Z" fill="url(#paint0_linear_516_70)"/>
</g>
</g>
<defs>
<filter id="filter0_d_516_70" x="-8.35548" y="0.122787" width="52.69" height="43.1205" filterUnits="userSpaceOnUse" color-interpolation-filters="sRGB">
<feFlood flood-opacity="0" result="BackgroundImageFix"/>
<feColorMatrix in="SourceAlpha" type="matrix" values="0 0 0 0 0 0 0 0 0 0 0 0 0 0 0 0 0 0 127 0" result="hardAlpha"/>
<feOffset/>
<feGaussianBlur stdDeviation="4.167"/>
<feColorMatrix type="matrix" values="0 0 0 0 0 0 0 0 0 0 0 0 0 0 0 0 0 0 0.25 0"/>
<feBlend mode="overlay" in2="BackgroundImageFix" result="effect1_dropShadow_516_70"/>
<feBlend mode="normal" in="SourceGraphic" in2="effect1_dropShadow_516_70" result="shape"/>
</filter>
<filter id="filter1_d_516_70" x="16.4165" y="-8.24376" width="27.918" height="51.4875" filterUnits="userSpaceOnUse" color-interpolation-filters="sRGB">
<feFlood flood-opacity="0" result="BackgroundImageFix"/>
<feColorMatrix in="SourceAlpha" type="matrix" values="0 0 0 0 0 0 0 0 0 0 0 0 0 0 0 0 0 0 127 0" result="hardAlpha"/>
<feOffset/>
<feGaussianBlur stdDeviation="4.167"/>
<feColorMatrix type="matrix" values="0 0 0 0 0 0 0 0 0 0 0 0 0 0 0 0 0 0 0.25 0"/>
<feBlend mode="overlay" in2="BackgroundImageFix" result="effect1_dropShadow_516_70"/>
<feBlend mode="normal" in="SourceGraphic" in2="effect1_dropShadow_516_70" result="shape"/>
</filter>
<linearGradient id="paint0_linear_516_70" x1="17.9785" y1="0.090258" x2="17.9785" y2="34.9098" gradientUnits="userSpaceOnUse">
<stop stop-color="white"/>
<stop offset="1" stop-color="white" stop-opacity="0"/>
</linearGradient>
<clipPath id="clip0_516_70">
<rect width="36" height="35" fill="white"/>
</clipPath>
</defs>
</svg>
